<?xml version="1.0" encoding="utf-8"?>
<!-- Generator: Adobe Illustrator 18.0.0, SVG Export Plug-In . SVG Version: 6.00 Build 0)  -->
<!DOCTYPE svg PUBLIC "-//W3C//DTD SVG 1.1//EN" "http://www.w3.org/Graphics/SVG/1.1/DTD/svg11.dtd">
<svg version="1.1" xmlns="http://www.w3.org/2000/svg" xmlns:xlink="http://www.w3.org/1999/xlink" x="0px" y="0px"
	 viewBox="0 0 30 30" enable-background="new 0 0 30 30" xml:space="preserve">
<g id="rails">
</g>
<g id="october">
</g>
<g id="_x39_9ko">
</g>
<g id="django">
</g>
<g id="rip">
	<g>
		<g>
			<path fill="#FF974A" d="M10,11.3C10,9.9,9.5,8.8,8.6,8C7.7,7.3,6.2,6.9,4.3,6.9H0V22h2.5v-6h2.4l3.6,6h2.8l-4.3-6.7
				C9,14.6,10,13.2,10,11.3z M4.2,14H2.5V9h1.6c1.1,0,2,0.2,2.5,0.6c0.6,0.4,0.8,1,0.8,1.8c0,0.8-0.3,1.5-0.8,1.9
				C6.2,13.8,5.3,14,4.2,14z M13.5,22H16V6.9h-2.5V22z M28.6,8.1c-0.9-0.8-2.4-1.2-4.2-1.2H20V22h2.5v-5.6H24c1.9,0,3.4-0.4,4.4-1.3
				c1-0.8,1.5-2,1.5-3.6C30,10,29.5,8.9,28.6,8.1z M26.5,13.7c-0.6,0.4-1.5,0.7-2.8,0.7h-1.3V9h1.7c1.1,0,1.9,0.2,2.5,0.6
				c0.5,0.4,0.8,1.1,0.8,1.9C27.4,12.5,27.1,13.2,26.5,13.7z"/>
		</g>
	</g>
</g>
<g id="maitre_yii">
</g>
<g id="angular">
</g>
</svg>
