<?xml version="1.0" encoding="utf-8"?>
<!-- Generator: Adobe Illustrator 18.0.0, SVG Export Plug-In . SVG Version: 6.00 Build 0)  -->
<!DOCTYPE svg PUBLIC "-//W3C//DTD SVG 1.1//EN" "http://www.w3.org/Graphics/SVG/1.1/DTD/svg11.dtd">
<svg version="1.1" xmlns="http://www.w3.org/2000/svg" xmlns:xlink="http://www.w3.org/1999/xlink" x="0px" y="0px"
	 viewBox="0 0 30 30" enable-background="new 0 0 30 30" xml:space="preserve">
<g id="rails">
</g>
<g id="october">
</g>
<g id="_x39_9ko">
</g>
<g id="django">
</g>
<g id="rip">
</g>
<g id="maitre_yii">
	<g>
		<g>
			<path fill="#FF974A" d="M24.8,0c-3.3,0.1-7.3,4.4-5.9,8.4c1.4,3.9,2.4,6.8,2.6,11.2c3.5-3.6,6.7-7.5,6.9-12.1
				C28.5,3.8,26.8,1,24.8,0z M16.1,16.4c-0.5,0.9-1.1,1.9-2,3c-1.8,2.3-3.6,6.1-3,10.5c7.3-0.8,9.6-6.5,9.8-9.6
				C19.6,18.1,17.1,16.8,16.1,16.4z M1.3,2.8c-0.3,3.5,1.2,8.6,7,10.3c2.5,0.8,4.2,1.2,6,1.9c2.7,1,4.9,2.3,6.6,4.6
				c-0.3-3.9-1.9-8.3-4.3-11.8C13.1,2.8,7,0.4,1.3,2.8z"/>
		</g>
	</g>
</g>
<g id="angular">
</g>
</svg>
