<?xml version="1.0" encoding="UTF-8" standalone="no"?>
<!DOCTYPE svg PUBLIC "-//W3C//DTD SVG 1.1//EN" "http://www.w3.org/Graphics/SVG/1.1/DTD/svg11.dtd">
<svg width="100%" height="100%" viewBox="0 0 72 72" version="1.1" xmlns="http://www.w3.org/2000/svg" xmlns:xlink="http://www.w3.org/1999/xlink" xml:space="preserve" xmlns:serif="http://www.serif.com/" style="fill-rule:evenodd;clip-rule:evenodd;stroke-linejoin:round;stroke-miterlimit:2;">
    <g transform="matrix(1,0,0,1,24,24)">
        <rect x="0" y="0" width="24" height="24" style="fill:none;"/>
    </g>
    <g transform="matrix(3.21111,0,0,3.21111,-2.53333,-2.53333)">
        <path d="M3,10.689L21,10.689L21,13.311L3,13.311L3,10.689ZM13.311,18.311L13.311,21L10.689,21L10.689,18.311L8,18.311L12,14.311L16,18.311L13.311,18.311ZM13.311,5.689L16,5.689L12,9.689L8,5.689L10.689,5.689L10.689,3L13.311,3L13.311,5.689Z" style="fill-rule:nonzero;"/>
    </g>
</svg>
