<?xml version="1.0" encoding="UTF-8" standalone="no"?>
<!DOCTYPE svg PUBLIC "-//W3C//DTD SVG 1.1//EN" "http://www.w3.org/Graphics/SVG/1.1/DTD/svg11.dtd">
<svg width="100%" height="100%" viewBox="0 0 72 72" version="1.1" xmlns="http://www.w3.org/2000/svg" xmlns:xlink="http://www.w3.org/1999/xlink" xml:space="preserve" xmlns:serif="http://www.serif.com/" style="fill-rule:evenodd;clip-rule:evenodd;stroke-linejoin:round;stroke-miterlimit:2;">
    <path d="M22,9L49,9L49,63L22,63L22,9ZM26,35L26,45L45,45L45,35L26,35ZM45,21L26,21L26,31L45,31L45,21ZM26,49L26,59L45,59L45,49L26,49Z"/>
    <path d="M58.2,54.6L52,48.5L55.6,44.9L61.7,51L68.1,44.6L71.9,48.4L65.5,54.8L71.6,60.9L68,64.5L61.9,58.4L55.5,64.8L51.8,61L58.2,54.6Z" style="fill-rule:nonzero;"/>
</svg>
