<?xml version="1.0" encoding="UTF-8" standalone="no"?>
<!DOCTYPE svg PUBLIC "-//W3C//DTD SVG 1.1//EN" "http://www.w3.org/Graphics/SVG/1.1/DTD/svg11.dtd">
<svg width="100%" height="100%" viewBox="0 0 72 72" version="1.1" xmlns="http://www.w3.org/2000/svg" xmlns:xlink="http://www.w3.org/1999/xlink" xml:space="preserve" xmlns:serif="http://www.serif.com/" style="fill-rule:evenodd;clip-rule:evenodd;stroke-linejoin:round;stroke-miterlimit:2;">
    <path d="M37,63L0,63L0,9L72,9L72,47L68,38L68,21L4,21L4,59L37,59L37,63Z"/>
    <g transform="matrix(0.322989,0,0,0.322989,24.5406,24.657)">
        <path d="M96.904,134.194C77.872,134.194 59.292,118.71 58.969,99.677C58.969,94.516 60.259,89.677 62.195,85.484L96.904,21.935L131.613,85.484C133.548,89.677 134.516,94.516 134.516,99.677C134.516,118.71 115.936,134.194 96.904,134.194Z"/>
    </g>
</svg>
