<?xml version="1.0" encoding="UTF-8" standalone="no"?>
<!DOCTYPE svg PUBLIC "-//W3C//DTD SVG 1.1//EN" "http://www.w3.org/Graphics/SVG/1.1/DTD/svg11.dtd">
<svg width="100%" height="100%" viewBox="0 0 72 72" version="1.1" xmlns="http://www.w3.org/2000/svg" xmlns:xlink="http://www.w3.org/1999/xlink" xml:space="preserve" xmlns:serif="http://www.serif.com/" style="fill-rule:evenodd;clip-rule:evenodd;stroke-linejoin:round;stroke-miterlimit:2;">
    <path d="M72,9L72,63L0,63L0,9L72,9ZM32,17L8,17L8,31.789L14.733,31.789L14.733,23.156L27.578,36L14.733,48.844L14.733,40.211L8,40.211L8,55L32,55L32,52L40,52L40,55L64,55L64,40.211L57.267,40.211L57.267,48.844L44.422,36L57.267,23.156L57.267,31.789L64,31.789L64,17L40,17L40,20L32,20L32,17ZM40,39L40,47L32,47L32,39L40,39ZM40,25L40,33L32,33L32,25L40,25Z"/>
</svg>
