<?xml version="1.0" encoding="UTF-8" standalone="no"?>
<!DOCTYPE svg PUBLIC "-//W3C//DTD SVG 1.1//EN" "http://www.w3.org/Graphics/SVG/1.1/DTD/svg11.dtd">
<svg width="100%" height="100%" viewBox="0 0 72 72" version="1.1" xmlns="http://www.w3.org/2000/svg" xmlns:xlink="http://www.w3.org/1999/xlink" xml:space="preserve" xmlns:serif="http://www.serif.com/" style="fill-rule:evenodd;clip-rule:evenodd;stroke-linejoin:round;stroke-miterlimit:2;">
    <path d="M72,9L72,63L0,63L0,9L72,9ZM32,17L8,17L8,55L32,55L32,48L40,48L40,55L64,55L64,17L40,17L40,24L32,24L32,17ZM45.944,41.211L26.056,41.211L26.056,48.844L13.211,36L26.056,23.156L26.056,31.789L45.944,31.789L45.944,23.156L58.789,36L45.944,48.844L45.944,41.211Z"/>
</svg>
