<svg xmlns="http://www.w3.org/2000/svg" viewBox="0 0 633.5 156">
    <path fill="#c31432" d="M194.5 154.2c-42.5 0-77.1-34.6-77.1-77.1 0-22.2-18.1-40.3-40.3-40.3-22.2 0-40.3 18.1-40.3 40.3 0 22.2 18.1 40.3 40.3 40.3 10.2 0 18.4 8.2 18.4 18.4s-8.2 18.4-18.4 18.4C34.6 154.2 0 119.6 0 77.1 0 34.6 34.6 0 77.1 0c42.5 0 77.1 34.6 77.1 77.1 0 22.2 18.1 40.3 40.3 40.3 10.2 0 18.4 8.2 18.4 18.4s-8.2 18.4-18.4 18.4" class="svg--fill-white svg--fill-red-hover"/>
    <path fill="#000000" d="M305.9 100.9c-2 .7-4 1.2-6.3 1.6-2.2.4-4.6.8-7.1 1.1-2.5.3-4.9.7-7.4 1.1-2.3.4-4.6 1-6.8 1.7s-4.2 1.7-5.9 2.9c-1.7 1.2-3 2.8-4 4.7-1 1.9-1.5 4.3-1.5 7.2 0 2.7.5 5.1 1.5 6.9 1 1.9 2.4 3.4 4.1 4.5 1.7 1.1 3.8 1.8 6.1 2.3 2.3.4 4.7.7 7.2.7 6.1 0 10.8-1 14.1-3 3.3-2 5.8-4.4 7.4-7.3 1.6-2.8 2.6-5.7 2.9-8.6.4-2.9.5-5.2.5-6.9V98.2c-1.2 1.2-2.9 2.1-4.8 2.7M245 57.4c3.2-4.8 7.2-8.6 12.1-11.5 4.9-2.9 10.5-5 16.6-6.2 6.2-1.2 12.3-1.8 18.6-1.8 5.6 0 11.4.4 17.1 1.2 5.8.8 11.1 2.4 15.8 4.7 4.8 2.3 8.7 5.5 11.7 9.7 3 4.1 4.6 9.6 4.6 16.4v58.4c0 5.1.3 9.9.9 14.6.6 4.6 1.6 8.1 3 10.4h-31.3c-.6-1.7-1.1-3.5-1.4-5.3-.4-1.8-.6-3.7-.8-5.5-4.9 5.1-10.7 8.6-17.4 10.6-6.7 2-13.5 3-20.4 3-5.4 0-10.3-.7-15-2-4.6-1.3-8.7-3.3-12.1-6.1-3.5-2.7-6.2-6.2-8.1-10.4-2-4.2-2.9-9.2-2.9-15 0-6.4 1.1-11.6 3.4-15.7 2.2-4.1 5.1-7.4 8.7-9.9 3.5-2.5 7.6-4.3 12.1-5.5 4.6-1.2 9.2-2.2 13.8-2.9 4.6-.7 9.2-1.3 13.7-1.7 4.5-.4 8.5-1.1 11.9-2 3.5-.9 6.2-2.1 8.2-3.8 2-1.7 3-4.1 2.8-7.3 0-3.3-.5-6-1.6-7.9-1.1-2-2.5-3.5-4.3-4.6-1.8-1.1-3.9-1.8-6.3-2.2-2.4-.4-5-.5-7.7-.5-6.1 0-10.9 1.3-14.3 3.9-3.5 2.6-5.5 6.9-6.1 13h-30.8c.5-7.3 2.3-13.3 5.5-18.1m135.2 95.7L341.8 40.9h32.3l23.7 76.6h.4l23.7-76.6h30.6l-38 112.2zm100.7-42.8c.9 4.3 2.4 8.1 4.4 11.5 2.1 3.4 4.9 6.1 8.4 8.1s7.8 3 13 3 9.6-1 13.1-3 6.4-4.7 8.5-8.1c2.1-3.4 3.6-7.2 4.5-11.5.9-4.3 1.3-8.6 1.3-13.1s-.4-8.9-1.3-13.2c-.9-4.3-2.4-8.2-4.5-11.5-2.1-3.3-4.9-6-8.5-8.1-3.5-2.1-7.9-3.1-13.1-3.1-5.2 0-9.5 1.1-13 3.1-3.5 2.1-6.3 4.8-8.4 8.1-2.1 3.3-3.6 7.2-4.4 11.5-.9 4.3-1.3 8.8-1.3 13.2 0 4.4.4 8.8 1.3 13.1m-28-37.6c2.7-7.3 6.7-13.5 11.7-18.7 5.1-5.1 11.1-9.1 18.2-11.9 7.1-2.8 15-4.2 23.9-4.2 8.8 0 16.8 1.4 24 4.2 7.2 2.8 13.3 6.8 18.3 11.9 5.1 5.1 9 11.4 11.7 18.7 2.7 7.3 4.1 15.5 4.1 24.4 0 9-1.4 17.1-4.1 24.3-2.8 7.2-6.7 13.4-11.7 18.6-5.1 5.1-11.2 9.1-18.3 11.8-7.2 2.7-15.2 4.1-24 4.1s-16.8-1.4-23.9-4.1c-7.1-2.7-13.2-6.7-18.2-11.8-5.1-5.1-9-11.3-11.7-18.6-2.7-7.2-4.1-15.3-4.1-24.3 0-8.9 1.4-17.1 4.1-24.4m180.6-31.8v20.6h-22.6v55.6c0 5.2.9 8.7 2.6 10.4 1.7 1.7 5.2 2.6 10.4 2.6 1.7 0 3.4-.1 5-.2s3.1-.4 4.6-.7v23.9c-2.6.4-5.5.7-8.7.9-3.2.1-6.3.2-9.3.2-4.8 0-9.3-.3-13.6-1-4.3-.7-8-1.9-11.3-3.8-3.2-1.9-5.8-4.6-7.7-8-1.9-3.5-2.8-8-2.8-13.7V61.6h-18.7V40.9h18.7V7.3h30.8v33.6h22.6z" class="svg--fill-white"/>
</svg>
