<svg xmlns="http://www.w3.org/2000/svg" width="210.3" height="195" viewBox="0 0 210.3 195">
	<style>
		@keyframes slideCloudTop {
			0%,
			100% {
				transform: translateX(0);
			}
			50% {
				transform: translateX(20px);
			}
		}
		@keyframes slideCloudBottom {
			0%,
			100% {
				transform: translateX(0);
			}
			50% {
				transform: translateX(-10px);
			}
		}
	</style>
	<path fill="#F49037" d="M105.6 163.8h8.6v23.7h-8.6zM176.6 156.6c-2.6 2.2-6.6 1.8-8.7-.8L47.9 10.5c-2.2-2.6-1.8-6.6.8-8.7 2.6-2.2 6.6-1.8 8.7.8l120 145.3c2.2 2.6 1.8 6.5-.8 8.7z"/>
	<path d="M153.8 195l16.6-4.7c1.7-.5 1.6-2.9-.2-3.3l-33.9-4.1 1.6 5.4s12.2 2.6 15.9 6.7z" opacity=".05"/>
	<linearGradient id="SVGID_1_" x1="206.2278" x2="786.6278" y1="-151.4528" y2="-151.4528" gradientTransform="matrix(.2283 0 0 -.2283 -1.8007 48.2202)" gradientUnits="userSpaceOnUse">
		<stop offset="0" stop-color="#fba23b"/>
		<stop offset="1" stop-color="#ffc93e"/>
	</linearGradient>
	<circle cx="111.5" cy="82.8" r="66.2" fill="url(#SVGID_1_)"/>
	<path fill="#F49037" d="M162.1 139.5c-8.7 7.2-19.1 12.5-30.8 15.3-10.2 2.4-20.4 2.7-30.1 1-14.6-2.4-28.1-9.1-38.8-19-5.4-5-10.1-10.7-13.9-17.1-3.8-6.4-6.7-13.5-8.5-21.2-1.7-7.2-2.4-14.5-2-21.5.5-10.6 3.3-20.8 8-30.1s11.2-17.5 19.2-24.2l-5.8-7c-12 10-21 23.1-26 37.8-5 14.7-6.1 31-2.2 47.1 2.7 11.4 7.6 21.7 14.2 30.6 9.8 13.4 23.3 23.5 38.6 29.2 7.6 2.9 15.8 4.7 24.1 5.3s16.9-.1 25.5-2.1c13.1-3.1 24.8-9.1 34.5-17.2l-6-6.9z"/>
	<path fill="#E5892E" d="M51.4 84.8c0-36.6 29.7-66.2 66.2-66.2 6.2 0 12.2.8 17.9 2.4-7.5-2.9-15.6-4.5-24-4.5-36.6 0-66.2 29.7-66.2 66.2 0 30.4 20.5 56 48.4 63.8C69 137 51.4 113 51.4 84.8z" opacity=".8"/>
	<path fill="#FFFAEE" d="M149.1 28.2l-4.1 1.5h-.3l-6.6-.9c-.2 0-.4 0-.6.2l-3.2 3.4c-.1.1-.2.2-.3.2l-15.2 3.6-6 2.4c-.2.1-.3 0-.4-.1l-1.1-1.6c-.2-.3 0-.6.3-.6l2.7.4c.1 0 .2 0 .3-.1l1.9-1.3c.3-.2.2-.5-.1-.6l-11.7-3.8h-.2l-8.4 1.8c-.1 0-.1 0-.2.1l-5.2 5.8-.1.1-4.6 2.6c-.1.1-.2.2-.2.4l.8 4.1c0 .2.3.3.5.3l3.9-1.2c.2 0 .3 0 .4.2l2.3 3.6c.1.1.3.2.4.1l2.2-.8c.1 0 .1-.1.2-.2l2.3-3.7c.1-.1.1-.3 0-.4l-1.4-2.5c-.1-.1-.1-.3.1-.4l4.3-4.3c.1-.1.3-.1.5 0l.8.6c.2.1.2.4 0 .5l-2.3 2.2c-.1.1-.1.2-.1.3l.6 3.5c0 .1 0 .1.1.2l1.8 2.3c.2.3-.1.7-.4.6-.2-.1-.4 0-.5.2l-.9 2.4c0 .1-.1.2-.2.2l-3.3 1.3h-.1l-5 .4c-.2 0-.3-.1-.4-.2L91 47.2c-.1-.2-.2-.3-.4-.2l-1.4.3c-.2 0-.3.2-.3.4l.7 3.7c0 .2-.1.4-.3.4l-3.2.2c-.1 0-.2 0-.3.1l-2.5 3.1-2.7 2.1c-.1.1-.3.1-.5 0l-.3-.2c-.3-.2-.6 0-.6.3 0 .2-.2.4-.4.4h-2.6c-.2 0-.3.1-.4.3l-.3 1c0 .2 0 .4.3.5l3.4 1.3c.2.1.3.3.3.4l-.5 3.3c0 .2-.3.4-.5.3L73 63.8c-.1 0-.2 0-.3.1l-2.2 1.6c-.1.1-.2.2-.2.4l.5 4.6.6 2.6c0 .2.2.3.3.3l2.9.5 2.7.1h.2l2.1-.9c.1 0 .2-.1.2-.2l.9-2.1.9-2.1c0-.1.1-.1.1-.2l2-1.3 1-1.5s1.5-.8 2.1-.8c.5 0 2.6-.5 2.6-.5l1.4-.5 4 3.6 3.1 2.1v1.1l-3.5 1 2.8 2.5 2.2-3.2-.1-1.8 1.1.1.3-1.1-4.7-2.3-2.2-3.7 2.9.5 4.7 4.3 3.5 6.4 1.3 1.3 1.4-2.8-1-2.4 1.5-1.4 1 1.8 2.5 3.6 6.5.8 2.1-.4.1 1.8-1.3 5.4-4.2-1.5-2.1 1.9-7.2-2.9-2.5.7.4 2.4-6.4-2.5-4.7-2.4.1-4.2-7.5.7-5.9 2.9-4.7-1.1-2.2 2.4-2.2 5.1-3.5 2.9-5.1 7.1-.1 9.4 4.4 9.3 7.5 4.9 7.9-.8 4.6-1.5 2.6 2.8 2.2-.3 1.9 1.4-1 6 5 9.5c.5.9.6 1.9.3 2.8l-2.1 7.7c-.2.7-.2 1.4 0 2.1l.3 1.1c5.3 1.4 10.8 2.1 16.6 2.1 3.7 0 7.4-.3 10.9-.9.2-.5.5-.9.9-1.3l3.7-3.4c1.1-1 1.5-2.4 1.1-3.8l-2.1-8.1c-.3-1-.1-2.1.4-3l3.2-5.3 8.9-7.1 2.6-9.2c.1-.5-.3-1-.9-.8l-6.9 2.4c-.3.1-.6 0-.8-.3l-2.8-3.9-6.4-9-4.2-9.6 1.4-.8 6.7 9.6 4.3 10.5 12-4.8c.1 0 .2-.1.3-.3l4.9-7.6c.2-.3.1-.7-.2-.9l-2.5-1.7-.3-.3-.3-.9c-.2-.5-.9-.6-1.2-.2l-1.1 1.7c-.1.2-.3.3-.5.3h-2.8c-.3 0-.5-.1-.6-.4l-3.1-6.4c-.3-.6.3-1.2.9-.9l.2.1h.1L143 87c.3.2.6.2.8 0l1-.8c.3-.2.7-.2.9.1l1.1 1.3c.1.2.3.3.5.3l9.8.5c.2 0 .4.1.5.3l4.7 5.7c.2.2.4.3.6.2l.5-.1c.3-.1.7.2.8.5l1.9 7.4s0 .1.1.2l4.7 8.4c.1.2.3.3.4.4.9-1.9 1.8-3.9 2.5-6l-.1-3.3c0-.3.1-.5.3-.6l1.3-.7c1.6-5.7 2.4-11.7 2.4-17.9.1-22.8-11.3-42.7-28.6-54.7z"/>
	<path fill="#E2A730" d="M155.5 123.8c-25.9 25.9-67.8 25.9-93.7 0-4.4-4.4-8-9.2-10.9-14.3 3.2 7.3 7.8 14.2 13.8 20.2 25.9 25.9 67.8 25.9 93.7 0 21.5-21.5 25.1-54.1 10.9-79.4 10.7 24.3 6.1 53.7-13.8 73.5z" opacity=".6"/>
	<path fill="#DB781F" d="M149.7 17.8c-5.2 0-9.4 4.2-9.4 9.4 0 6.9 9.4 14.5 9.4 14.5S159 35 159 27.1c0-5.1-4.2-9.3-9.3-9.3zm0 14.3c-2.7 0-5-2.2-5-5s2.2-5 5-5c2.7 0 5 2.2 5 5s-2.3 5-5 5zM157 49c-5.2 0-9.4 4.2-9.4 9.4 0 6.9 9.4 14.5 9.4 14.5s9.4-6.6 9.4-14.5c0-5.2-4.2-9.4-9.4-9.4zm0 14.3c-2.7 0-5-2.2-5-5 0-2.7 2.2-5 5-5s5 2.2 5 5-2.2 5-5 5zM81.6 36.9c-5.2 0-9.4 4.2-9.4 9.4 0 6.9 9.4 14.5 9.4 14.5S91 54.2 91 46.3c-.1-5.2-4.3-9.4-9.4-9.4zm0 14.3c-2.7 0-5-2.2-5-5 0-2.7 2.2-5 5-5 2.7 0 5 2.2 5 5-.1 2.8-2.3 5-5 5z"/>
	<path fill="#F49037" d="M110.2 181.4h-.8c-43.9.1-41.5 9-41.5 9 0 2.6 2.1 4.6 4.6 4.6H147.1c2.6 0 4.6-2.1 4.6-4.6.1 0 2.5-8.9-41.5-9z"/>
	<path fill="#C6681A" d="M153.2 195H66.5c-1.5 0-2.7-1.2-2.7-2.7 0-1.5 1.2-2.7 2.7-2.7h86.7c1.5 0 2.7 1.2 2.7 2.7 0 1.5-1.2 2.7-2.7 2.7z"/>
	<path fill="#C96E23" d="M157.4 143.1l5.8 7.1s-3.4 2.6-6.9 4.5c.9-10.2 1.1-11.6 1.1-11.6zM105.5 165.7s4.4.5 8.7.2v2.2s-2.1.5-8.6-.1c0-1.1-.1-2.3-.1-2.3z"/>
	<g style="animation:slideCloudTop 20s linear infinite">
		<path fill="#FFF" d="M79.1 24H19c-2.5 0-4.8 1.8-5 4.3-.3 2.9 2 5.3 4.8 5.3h10c2.4 0 4.4 2 4.4 4.4 0 2.4-2 4.4-4.4 4.4H7.3c-2.7 0-4.8 2.2-4.8 4.8 0 2.7 2.2 4.8 4.8 4.8h61.5c2.7 0 4.8-2.2 4.8-4.8 0-2.7-2.2-4.8-4.8-4.8h-8.7c-2.4 0-4.4-2-4.4-4.4 0-2.4 2-4.4 4.4-4.4h18.8c2.5 0 4.8-1.8 5-4.3.3-2.9-2-5.3-4.8-5.3z"/>
		<path fill="#FFEBCC" d="M69.9 43.3c0 2.7-2.2 4.8-4.8 4.8H2.6c.4 2.3 2.4 4.1 4.8 4.1h61.5c2.7 0 4.8-2.2 4.8-4.8 0-2.3-1.6-4.2-3.8-4.7-.1.1 0 .3 0 .6z"/>
		<path fill="none" d="M56.9 35c0-.1 0 0 0 0z"/>
		<path fill="#FFEBCC" d="M63.1 30.7h13.5c2.2 0 4.3-1.4 4.9-3.6.2-.8.2-1.7 0-2.4 1.6 1 2.6 2.8 2.3 4.8-.3 2.4-2.6 4.1-5 4.1H60.1c-1.2 0-2.3.5-3.1 1.3l2.9-2.9c.8-.8 2-1.3 3.2-1.3z"/>
	</g>
	<g style="animation:slideCloudBottom 13s linear infinite">
		<path fill="#FFF" d="M204.9 112.7h-60c-2.5 0-4.8 1.8-5 4.3-.3 2.9 2 5.3 4.8 5.3h10c2.4 0 4.4 2 4.4 4.4 0 2.4-2 4.4-4.4 4.4h-21.6c-2.7 0-4.8 2.2-4.8 4.8 0 2.7 2.2 4.8 4.8 4.8h61.5c2.7 0 4.8-2.2 4.8-4.8 0-2.7-2.2-4.8-4.8-4.8h-8.7c-2.4 0-4.4-2-4.4-4.4 0-2.4 2-4.4 4.4-4.4h18.8c2.5 0 4.8-1.8 5-4.3.3-2.8-2-5.3-4.8-5.3z"/>
		<path fill="#FFEBCC" d="M195.7 132c0 2.7-2.2 4.8-4.8 4.8h-62.5c.4 2.3 2.4 4.1 4.8 4.1h61.5c2.7 0 4.8-2.2 4.8-4.8 0-2.3-1.6-4.2-3.8-4.7v.6z"/>
		<path fill="none" d="M182.8 123.7z"/>
		<path fill="#FFEBCC" d="M189 119.5h13.5c2.2 0 4.3-1.4 4.9-3.6.2-.8.2-1.7 0-2.4 1.6 1 2.6 2.8 2.3 4.8-.3 2.4-2.6 4.1-5 4.1h-18.8c-1.2 0-2.3.5-3.1 1.3l2.9-2.9c.8-.9 2-1.3 3.3-1.3z"/>
	</g>
</svg>
