<svg xmlns="http://www.w3.org/2000/svg" width="51.013" height="56.993" viewBox="0 0 51.013 56.993">
    <path fill="#ffb864" d="M50.453 1.264C50.05.82 49.47.556 48.866.542L24.893 0h-.104L2.144.542C1.54.556.96.82.56 1.265.156 1.71-.046 2.307.01 2.9L4.22 49.868c.08.906.723 1.662 1.614 1.9l19.233 5.15c.38.1.767.1 1.15 0l18.957-5.06c.89-.236 1.534-.994 1.615-1.9L51.005 2.9c.053-.594-.15-1.193-.552-1.636zM42.548 48.07l-16.903 4.51-17.18-4.6-3.87-43.16 20.25-.485 21.575.488-3.872 43.247z"></path>
    <path fill="#ffb864" d="M16.643 27.834l4.732-4.842c.42-.43.408-1.117-.03-1.532-.436-.415-1.132-.402-1.553.027l-5.495 5.624c-.204.21-.313.484-.308.773.005.29.124.56.336.76l5.495 5.216c.438.413 1.134.4 1.555-.03.42-.43.407-1.118-.03-1.533l-4.702-4.463zM29.683 33.83c.42.433 1.117.445 1.554.03l5.495-5.215c.212-.2.33-.47.337-.76.004-.29-.105-.564-.31-.772l-5.494-5.624c-.42-.43-1.117-.443-1.554-.028-.437.415-.45 1.102-.03 1.532l4.733 4.842-4.703 4.463c-.436.414-.45 1.1-.03 1.53z"></path>
</svg>
