<svg xmlns="http://www.w3.org/2000/svg" width="58.433" height="58.432" viewBox="0 0 58.433 58.432">
    <path fill="#ffb864" d="M27.163 16.856c-6.843 1.03-11.553 7.41-10.523 14.253 1.03 6.84 7.41 11.55 14.254 10.52 6.842-1.03 11.553-7.41 10.523-14.252-1.032-6.84-7.412-11.552-14.254-10.522zm10.306 18.62c-1.6 2.164-4.012 3.713-6.88 4.145s-5.63-.337-7.794-1.933c-2.163-1.598-3.71-4.01-4.144-6.88-.43-2.868.338-5.63 1.935-7.794 1.598-2.162 4.01-3.712 6.88-4.144 2.868-.433 5.63.336 7.793 1.932 2.163 1.6 3.71 4.01 4.144 6.88.43 2.87-.34 5.63-1.935 7.795zm16.179 2.529z"/>
    <path fill="#ffb864" d="M55.77 18.915a4.1137 4.1137 0 0 0-3.062-.76l-3.392.51c-.416-.79-.876-1.552-1.377-2.28l2.038-2.762c.672-.91.918-2.024.76-3.06-.154-1.038-.716-2.033-1.628-2.705l-5.34-3.942a4.1253 4.1253 0 0 0-3.06-.76 4.1182 4.1182 0 0 0-2.704 1.63l-2.04 2.76c-.843-.265-1.706-.48-2.586-.646l-.51-3.392A4.1133 4.1133 0 0 0 31.242.806C30.4.18 29.3-.124 28.18.046l-6.562.988a4.123 4.123 0 0 0-2.703 1.628c-.624.842-.93 1.943-.76 3.063l.51 3.39c-.79.418-1.552.878-2.28 1.38l-2.763-2.04c-.91-.673-2.026-.92-3.062-.76-1.037.153-2.032.717-2.703 1.628l-3.94 5.338c-.674.912-.92 2.027-.76 3.064.152 1.036.716 2.03 1.626 2.703l2.763 2.038c-.264.844-.48 1.707-.645 2.587l-3.39.51c-1.12.167-2.083.782-2.704 1.627-.625.84-.93 1.94-.76 3.062l.988 6.562c.167 1.12.783 2.083 1.628 2.703.842.624 1.943.93 3.062.76l3.392-.51c.416.79.876 1.552 1.377 2.28L8.455 44.81c-.673.91-.918 2.026-.76 3.062.154 1.038.717 2.032 1.627 2.702l5.34 3.943c.91.672 2.026.917 3.062.76 1.037-.154 2.03-.717 2.702-1.627l2.04-2.763c.844.264 1.707.48 2.585.645l.512 3.393c.167 1.12.783 2.08 1.628 2.702.842.625 1.943.93 3.062.76l6.563-.988a4.1176 4.1176 0 0 0 2.703-1.63c.624-.84.93-1.943.76-3.06l-.51-3.394c.79-.416 1.552-.877 2.28-1.376l2.763 2.038c.91.673 2.027.918 3.063.76 1.037-.153 2.03-.716 2.702-1.627l3.942-5.34c.674-.91.918-2.028.76-3.063-.155-1.037-.718-2.03-1.63-2.7l-2.76-2.04c.264-.844.48-1.707.645-2.586l3.392-.51c1.12-.167 2.082-.783 2.703-1.628.625-.842.93-1.942.76-3.06l-.988-6.564c-.17-1.12-.785-2.082-1.63-2.703zm-1.41 9.87l-.01.04-.033.02-4.873.734c-.042.005-.08.02-.122.03-.073.016-.145.032-.214.056-.062.02-.12.045-.178.07-.06.028-.122.055-.18.088-.058.032-.112.07-.167.108-.052.037-.104.074-.152.115-.05.042-.095.09-.14.136-.046.048-.09.094-.13.146-.04.05-.077.103-.112.157-.036.056-.07.112-.102.17-.03.06-.057.122-.082.185-.023.058-.046.117-.064.18-.02.07-.035.143-.048.217-.007.04-.022.078-.027.12a18.492 18.492 0 0 1-1.148 4.615c-.016.04-.02.082-.034.123-.023.07-.045.142-.06.213-.013.064-.02.127-.027.19-.007.067-.014.132-.014.2 0 .067.005.132.01.2.007.063.013.125.025.19.012.064.03.125.047.188.02.064.037.125.062.188.024.06.052.116.08.172.03.06.062.12.098.174.036.056.077.108.118.16.04.05.08.1.124.147.05.052.106.1.163.147.032.028.058.06.093.086l3.966 2.927.02.03-.01.043-3.94 5.338-.035.022-.04-.01-3.965-2.928c-.035-.026-.073-.042-.11-.064-.06-.04-.123-.08-.19-.113-.057-.03-.116-.05-.176-.075-.063-.024-.124-.047-.188-.065-.065-.018-.13-.03-.197-.04a2.0723 2.0723 0 0 0-.19-.028c-.065-.007-.13-.007-.196-.004-.065 0-.13.003-.195.01-.065.008-.127.02-.19.034-.065.013-.13.027-.193.048-.064.02-.125.046-.187.073-.058.025-.116.05-.172.08-.065.037-.126.08-.188.122-.035.024-.072.04-.105.067-1.234.98-2.6 1.81-4.072 2.457-.04.017-.073.043-.11.063-.066.033-.13.067-.192.107-.054.037-.103.077-.154.117-.05.042-.102.083-.15.13-.047.047-.09.097-.134.15-.04.047-.08.097-.116.148-.038.054-.07.11-.102.17-.03.057-.06.113-.087.173s-.046.12-.066.183c-.02.063-.04.125-.053.19-.014.065-.023.132-.03.2-.008.062-.015.123-.017.187-.002.074.004.15.01.225.005.04 0 .08.007.123l.733 4.873-.01.04-.033.02-6.563.988-.04-.01-.02-.034-.734-4.873c-.006-.042-.022-.08-.03-.12-.017-.074-.033-.146-.056-.216-.02-.06-.046-.12-.072-.177-.027-.062-.054-.122-.087-.18-.033-.058-.07-.112-.11-.167-.036-.052-.072-.104-.114-.152-.042-.05-.088-.095-.135-.14-.047-.047-.095-.09-.146-.132-.05-.04-.104-.074-.158-.11-.056-.036-.11-.07-.17-.102-.06-.03-.122-.056-.184-.08-.06-.025-.118-.05-.18-.067-.07-.02-.143-.033-.216-.046-.042-.008-.08-.022-.123-.027-1.6-.183-3.147-.574-4.616-1.148-.04-.016-.082-.02-.123-.034-.07-.022-.14-.044-.21-.06-.064-.013-.127-.018-.19-.025-.067-.007-.132-.014-.198-.015-.068 0-.135.005-.202.01-.063.007-.125.014-.188.025-.065.012-.128.03-.192.047-.063.018-.124.037-.185.06-.06.025-.118.053-.175.083-.06.03-.116.06-.172.096-.057.036-.11.077-.163.12-.05.04-.1.078-.145.122-.054.05-.102.108-.15.167-.027.03-.058.056-.083.09l-2.928 3.966-.036.02-.04-.01-5.333-3.946-.02-.034.01-.04 2.928-3.965c.025-.035.042-.073.064-.107.04-.063.08-.125.113-.19.03-.058.052-.117.075-.177.024-.062.047-.124.066-.188.018-.065.03-.13.04-.196.012-.063.022-.125.028-.19.005-.065.004-.13.003-.195 0-.066-.003-.13-.01-.196-.008-.062-.02-.124-.034-.187-.014-.064-.028-.13-.05-.193-.02-.064-.044-.125-.07-.186-.026-.06-.05-.117-.083-.175-.035-.065-.077-.126-.12-.186-.023-.036-.04-.074-.067-.108-.98-1.233-1.81-2.598-2.457-4.072-.018-.04-.043-.072-.063-.11-.034-.066-.067-.13-.108-.19a1.7964 1.7964 0 0 0-.117-.155c-.042-.053-.083-.104-.13-.15-.046-.048-.097-.092-.148-.135-.05-.04-.098-.08-.15-.117-.055-.037-.112-.07-.17-.1a1.8912 1.8912 0 0 0-.173-.09c-.06-.025-.12-.045-.182-.065-.063-.02-.125-.04-.19-.054-.066-.016-.132-.022-.2-.032-.062-.006-.124-.014-.187-.015-.075-.002-.15.004-.224.01-.042.003-.082 0-.124.006l-4.873.733-.04-.01-.02-.034-.988-6.563.01-.04.033-.02 4.873-.734c.042-.006.08-.022.12-.03.073-.017.146-.033.217-.056.06-.02.118-.045.175-.07.062-.028.124-.056.182-.088.058-.034.11-.07.166-.108.053-.037.105-.074.155-.117.05-.042.095-.087.14-.134a1.68 1.68 0 0 0 .133-.147c.04-.05.074-.1.108-.154.038-.058.074-.115.105-.175.03-.058.055-.118.08-.178.023-.06.047-.12.065-.183.02-.07.034-.142.046-.213.008-.04.022-.08.028-.124.184-1.6.575-3.146 1.148-4.615.016-.04.02-.08.034-.12.023-.07.045-.142.06-.214.013-.063.02-.126.026-.19.007-.066.014-.132.015-.2 0-.066-.005-.132-.01-.198-.007-.064-.013-.127-.025-.19-.012-.065-.03-.127-.047-.19-.02-.063-.038-.126-.062-.187-.023-.058-.05-.114-.08-.172a1.85 1.85 0 0 0-.098-.174c-.036-.057-.076-.107-.117-.16-.04-.05-.08-.1-.125-.148-.05-.054-.106-.1-.163-.148-.033-.028-.06-.06-.095-.085L7.198 17.15l-.018-.037.01-.04 3.94-5.338.035-.02.04.01 3.966 2.927c.035.026.073.04.108.064.063.042.125.082.192.114.057.03.116.052.174.075.063.023.125.047.19.065.064.02.128.03.193.042.064.01.127.02.19.026.066.005.13.005.195.004.066 0 .132-.003.198-.01.063-.008.124-.02.186-.034.066-.013.13-.028.196-.048.063-.02.123-.046.184-.072.06-.025.118-.05.176-.083.063-.034.124-.076.184-.118.036-.025.074-.042.108-.07 1.235-.98 2.6-1.81 4.073-2.455.04-.017.072-.043.11-.062.065-.035.13-.068.192-.11.053-.034.102-.073.15-.114.053-.04.104-.083.152-.13.047-.047.09-.096.132-.147.042-.05.082-.1.118-.153.037-.054.07-.11.1-.167.032-.058.063-.116.09-.177.024-.058.044-.118.063-.177.02-.066.04-.13.055-.196.014-.065.022-.13.03-.195.007-.065.014-.13.016-.193 0-.074-.004-.146-.01-.22-.005-.042 0-.084-.007-.126l-.735-4.872.01-.04.034-.02 6.562-.988.04.01.02.034.734 4.873c.006.042.022.08.03.12.017.074.033.147.056.217.02.062.045.12.07.177.028.062.056.124.09.182.032.058.07.112.107.166.036.054.073.104.115.153.042.05.088.096.135.143.047.045.095.09.147.13.05.04.103.076.155.11.056.037.112.073.172.104.06.03.12.056.182.08.06.023.12.048.18.065.07.02.143.034.216.047.042.006.08.02.124.026 1.6.184 3.146.574 4.615 1.15.04.014.08.02.12.03.073.024.144.046.217.06.063.014.124.02.187.028.067.007.134.013.202.014.066 0 .13-.004.197-.01.065-.006.128-.012.192-.024.063-.013.125-.03.188-.047.064-.02.127-.037.19-.063.057-.022.113-.05.168-.08.062-.03.12-.06.18-.098.054-.036.105-.076.157-.116.05-.04.102-.08.15-.126.05-.05.098-.106.145-.162.028-.033.06-.06.086-.095L41.276 7.2l.035-.02.04.008 5.34 3.94.02.037-.01.038-2.928 3.967c-.026.035-.042.072-.065.11-.04.062-.08.123-.112.188-.03.058-.052.117-.076.177-.025.063-.048.124-.066.188-.018.065-.03.13-.042.196-.01.062-.02.124-.026.187-.006.066-.005.132-.004.198 0 .065.003.13.01.194.007.062.02.126.034.188.014.064.028.13.048.193.02.065.046.126.073.19.025.057.05.114.08.17.036.066.08.127.12.19.025.033.043.072.07.104.98 1.234 1.81 2.598 2.456 4.072.017.04.042.072.062.11.034.066.068.13.11.192.035.054.075.103.115.152.042.053.084.104.13.152.047.046.098.09.15.133.048.042.097.082.15.117.054.037.11.07.168.1.057.032.114.063.175.09.06.024.12.044.18.064.063.02.127.04.192.055s.13.023.197.03c.063.01.126.015.192.017.073 0 .146-.003.22-.01.042-.004.083 0 .126-.007l4.873-.734.04.01.02.035.988 6.565z"/>
</svg>
