<svg xmlns="http://www.w3.org/2000/svg" width="1501.1" height="300" viewBox="0 0 1501.1 300">
	<g fill="#FFCD9D">
		<path d="M1345.9 268c-29.2 0-46.4-10-55.9-25.9-1.8-2.6-2.5-4.8-2.4-6.9h-.1v24.5h.1c0 1.9.8 4 2.4 6.4 9.5 15.9 26.7 25.9 55.9 25.9 42.4 0 59.4-23.5 59.4-58.9v-24c0 35.4-17 58.9-59.4 58.9z"/>
		<path d="M1374 197.3c-8.1 2.2-19.4 4.9-32.4 4.9-38.6 0-56.2-20.3-56.2-54.3v24c0 34 17.5 54.3 56.2 54.3 12.3 0 23.1-2.4 31.1-4.5.9-3.2 1.3-6.8 1.3-10.8v-13.6zM1371.6 92.2c-5.9-1.6-14-3-23-3-21.6 0-31.9 9.2-31.9 29.2v24c0-20 10.3-29.2 31.9-29.2 8.9 0 17 1.4 23 3 1.9.8 2.4 1.4 2.4 3.2v-24c0-1.8-.5-2.4-2.4-3.2zM1199.3 268c-29.2 0-46.4-10-56.2-25.9-1.7-2.6-2.4-4.9-2.2-7v24.6c0 1.9.7 4 2.2 6.4 9.7 15.9 27 25.9 56.2 25.9 42.4 0 59.4-23.5 59.4-58.9v-24c0 35.4-17 58.9-59.4 58.9z"/>
		<path d="M1227.4 198.1c-8.4 1.9-18.9 3.8-32.1 3.8-38.6 0-56.4-20.2-56.4-54.3v24c0 34 17.8 54.3 56.4 54.3 12.4 0 22.8-1.7 30.9-3.4 1-3.4 1.2-7.3 1.2-11.6v-12.8zM930.9 68.3v0zM1118.6 74.4l-36.2 122.9c-1.6 5.9-5.1 7.6-11.3 7.6h-9.2c-6.5 0-9.7-1.6-11.6-7.6l-19.7-69.1c-3.5-13-4.6-26.7-4.9-27.8h-1.4c-.3 1.1-1.6 14.9-5.1 27.8l-19.7 69.1c-1.6 5.9-5.1 7.6-11.3 7.6h-8.9c-6.2 0-9.7-1.6-11.3-7.6L932 74.4c-.7-2.3-1.1-4-1.1-5.4v23.5c-.1 1.4.3 3.3 1.1 5.9l36 122.8c1.6 5.9 5.1 7.6 11.3 7.6h8.9c6.2 0 9.7-1.6 11.3-7.6l19.7-69.1c3.5-13 4.9-26.7 5.1-27.8h1.4c.3 1.1 1.3 14.9 4.9 27.8l19.7 69.1c1.9 5.9 5.1 7.6 11.6 7.6h9.2c6.2 0 9.7-1.6 11.3-7.6l36.2-122.9c.6-2.3 1-4.1 1-5.5V68.4h-.1c.2 1.4-.2 3.4-.9 6zM189.5 56.7V39.8c0-2.9-.3-5.1-.9-6.9-1.2 3.5-3.8 4.8-8.3 4.8h-46.4v30.6h46.4c6.8.1 9.2-3 9.2-11.6zM53.4 37.8c-4.7 0-7.2-1.4-8.3-4.8-.6 1.7-.8 4-.8 6.9v16.9c0 8.6 2.2 11.7 9.2 11.7h46.4V37.8H53.4zM124.7 204.5H109c-6.8 0-9.2-2.4-9.2-9.2v24c0 6.8 2.4 9.2 9.2 9.2h15.7c6.7 0 9.2-2.4 9.2-9.2v-24c0 6.8-2.4 9.2-9.2 9.2zM206.3 204.5h-14.9c-6.2 0-8.4-2.2-8.4-8.4v24c0 6.2 2.2 8.4 8.4 8.4h14.9c6.2 0 8.1-2.2 8.1-8.4v-24c0 6.3-1.9 8.4-8.1 8.4zM252.4 76.3l-9.7-.2c-10.5 0-18.6 1.3-25.7 3.5-2.4.5-2.7 1.9-2.7 3.2v36.9c0-1.4.3-2.7 2.7-3.2 7-2.2 15.1-3.2 25.7-3.2h9.7c6.2 0 8.4-2.2 8.4-8.4V80.1c0-2.9-.4-4.8-1.4-6.1-1.3 1.7-3.5 2.3-7 2.3zM386.6 199.1c-10.8 4.3-27.3 9.5-52.9 9.5-38.6 0-56.4-20.2-56.4-54.3v24c0 34 17.8 54.3 56.4 54.3 25.7 0 42.1-5.1 52.9-9.5 8.6-3.5 10.5-6.8 10.5-15.1v-24c.1 8.4-1.8 11.6-10.5 15.1zM563.5 89.3c-10.8 0-20 2.7-26.2 4.9 2.2 5.7 3 12.7 3 20.2v2.8c6-1.9 14-3.9 23.2-3.9 17.5 0 26.2 8.9 26.2 26.2v-24c0-17.3-8.7-26.2-26.2-26.2zM612.9 204.5H598c-6.2 0-8.4-2.2-8.4-8.4v24c0 6.2 2.2 8.4 8.4 8.4h14.8c6.2 0 8.1-2.2 8.1-8.4v-24c.1 6.3-1.8 8.4-8 8.4zM482.5 89.3c-8.4 0-14.8 1.1-21.6 3.2-1.9.8-2.2 1.9-2.2 3.2v24c0-1.4.3-2.4 2.2-3.2 6.8-2.2 13.2-3.2 21.6-3.2 17.3 0 26.5 8.9 26.5 26.2v-24c-.1-17.3-9.2-26.2-26.5-26.2zM450.6 204.5h-14.9c-6.2 0-8.4-2.2-8.4-8.4v24c0 6.2 2.2 8.4 8.4 8.4h14.9c6.2 0 8.1-2.2 8.1-8.4v-24c0 6.3-1.9 8.4-8.1 8.4zM531.9 204.5h-14.6c-6.2 0-8.4-2.2-8.4-8.4v24c0 6.2 2.2 8.4 8.4 8.4h14.6c6.2 0 8.4-2.2 8.4-8.4v-24c0 6.3-2.2 8.4-8.4 8.4zM709.5 208.6c-21.9 0-39.4-4.6-48.9-8.6-8.6-4.1-10-6.2-10-14.9v24c0 8.6 1.4 10.8 10 14.9 9.5 4 27 8.6 48.9 8.6 41.3 0 61-20.2 61-57.2v-24c.1 36.9-19.6 57.2-61 57.2zM709.8 89.3c-11.3 0-21.3 2.7-27.8 4.9v24c6.5-2.2 16.5-4.9 27.8-4.9 19.2 0 29.4 9.5 29.4 26.5v-24c0-17.1-10.2-26.5-29.4-26.5zM855.1 89c-19.7 0-30.8 9.2-30.8 25.7v24c0-16.5 11.1-25.7 30.8-25.7 20 0 31.1 9.2 31.1 25.7v-24c-.1-16.5-11.1-25.7-31.1-25.7zM855.1 208.6c-40 0-62.1-20.5-62.1-54v24c0 33.5 22.1 54 62.1 54 40.5 0 62.4-20.5 62.4-54v-24c-.1 33.5-21.9 54-62.4 54zM930.9 69v-.5.5z"/>
	</g>
	<path fill="#FFF" d="M189.6 22v13.2c0 6.8-2.4 9.2-9.2 9.2H134v150.9c0 6.8-2.4 9.2-9.2 9.2h-15.7c-6.8 0-9.2-2.4-9.2-9.2V44.4H53.5c-7 0-9.2-2.4-9.2-9.2V22c0-6.8 2.2-9.2 9.2-9.2h126.9c6.7 0 9.2 2.5 9.2 9.2zM252.5 60.6c6.2 0 8.4 1.9 8.4 8.4v11.9c0 6.2-2.2 8.4-8.4 8.4h-9.7c-10.5 0-18.6 1.1-25.7 3.2-2.4.5-2.7 1.9-2.7 3.2v100.4c0 6.2-1.9 8.4-8.1 8.4h-14.9c-6.2 0-8.4-2.2-8.4-8.4v-112c0-8.6 1.9-11.9 10.5-15.4 10-3.8 26.2-7.6 50.2-8.1h8.8zM397.2 72.8V184c0 8.4-1.9 11.6-10.5 15.1-10.8 4.3-27.3 9.5-52.9 9.5-38.6 0-56.4-20.2-56.4-54.3V72.8c0-6.2 2.2-8.1 8.4-8.1h14.9c6.2 0 8.1 1.9 8.1 8.1v80.5c0 18.1 9.7 26.7 29.4 26.7 10.5 0 17.6-1.1 24.8-3.2 2.4-.8 3-2.4 3-4.6V72.8c0-6.2 2.2-8.1 8.4-8.1H389c6 0 8.2 1.9 8.2 8.1zM568.1 60.6c36.7 0 52.9 19.7 52.9 53.7v81.8c0 6.2-1.9 8.4-8.1 8.4H598c-6.2 0-8.4-2.2-8.4-8.4v-80.7c0-17.3-8.6-26.2-26.2-26.2-10.8 0-20 2.7-26.2 4.9 2.2 5.7 3 12.7 3 20.2v81.8c0 6.2-2.2 8.4-8.4 8.4h-14.6c-6.2 0-8.4-2.2-8.4-8.4v-80.7c0-17.3-9.2-26.2-26.5-26.2-8.4 0-14.9 1.1-21.6 3.2-1.9.8-2.2 1.9-2.2 3.2V196c0 6.2-1.9 8.4-8.1 8.4h-14.9c-6.2 0-8.4-2.2-8.4-8.4V85c0-8.6 2.2-11.9 10.5-15.4 10.5-4.3 25.4-9.2 49.1-9.2 14.3 0 25.4 3 33.5 8.9 9.8-3.5 24.7-8.7 47.9-8.7zM682 13.1v52.1c8.1-1.9 19.2-4.6 32.4-4.6 38.6 0 56.2 20 56.2 54.3v36.5c0 37-19.7 57.2-61 57.2-21.9 0-39.4-4.6-48.9-8.6-8.6-4.1-10-6.2-10-14.9v-172c0-6.2 2.2-8.4 8.4-8.4H674c6.1 0 8 2.2 8 8.4zm27.8 76.2c-11.3 0-21.3 2.7-27.8 4.9v79.7c0 1.3.3 2.2 2.2 3 6.2 2.2 14.3 3.2 23.2 3.2 21.6 0 31.9-9.5 31.9-29.4v-34.8c0-17.2-10.3-26.6-29.5-26.6zM855.1 60.6c40.5 0 62.4 20.5 62.4 54v40c0 33.5-21.9 54-62.4 54-40 0-62.1-20.5-62.1-54v-40c0-33.4 22.1-54 62.1-54zm0 28.4c-19.7 0-30.8 9.2-30.8 25.7v40c0 16.2 11.1 25.7 30.8 25.7 20 0 31.1-9.5 31.1-25.7v-40c-.1-16.5-11.1-25.7-31.1-25.7zM1118.6 74.4l-36.2 122.9c-1.6 5.9-5.1 7.6-11.3 7.6h-9.2c-6.5 0-9.7-1.6-11.6-7.6l-19.7-69.1c-3.5-13-4.6-26.7-4.9-27.8h-1.4c-.3 1.1-1.6 14.9-5.1 27.8l-19.7 69.1c-1.6 5.9-5.1 7.6-11.3 7.6h-8.9c-6.2 0-9.7-1.6-11.3-7.6L932 74.4c-2.4-7.8-1.4-9.7 6.8-9.7h10.5c10 0 13.5 1.4 14.8 8.4l15.4 60.5c2.4 11.9 4 31.6 4.6 32.9h1.4c.3-1.4 2.2-20.5 5.7-33.2l17.8-59.1c2.2-7.3 3.8-8.6 13.8-8.6h6.2c10 0 11.6 1.3 13.8 8.4l18.1 59.4c4 13.8 5.4 31.9 5.7 33.2h1.6c.3-1.4 1.1-17.8 4.6-33.2l14.9-60.2c1.6-7 4.9-8.4 15.1-8.4h8.9c8-.1 9.1 1.8 6.9 9.6zM1258.7 72.8v136.4c0 35.4-17 58.9-59.4 58.9-29.2 0-46.4-10-56.2-25.9-3.8-5.9-3-10.3 3.5-13.5l10.3-5.7c6.5-3.2 9.5-2.4 13.5 3.2 5.7 8.9 13.8 13.8 28.4 13.8 18.9 0 28.6-10 28.6-29.2v-12.7c-8.4 1.9-18.9 3.8-32.1 3.8-38.6 0-56.4-20.2-56.4-54.3V72.8c0-6.2 2.2-8.1 8.4-8.1h14.8c6.2 0 8.1 1.9 8.1 8.1v73.7c0 18.1 9.7 26.7 29.4 26.7 11.3 0 20.5-1.9 27.8-3.8V72.8c0-6.2 2.2-8.1 8.4-8.1h14.6c6.2 0 8.3 1.9 8.3 8.1zM1346.5 60.6c21.9 0 39.4 4 48.9 8.4 8.6 4 10 6.2 10 14.8v125.3c0 35.4-17 58.9-59.4 58.9-29.2 0-46.4-10-55.9-25.9-4-5.9-3-10.3 3.2-13.5l10.3-5.7c6.5-3.2 9.5-2.4 13.8 3.2 5.7 8.9 13.5 13.8 28.1 13.8 18.9 0 28.6-10 28.6-29.2v-13.5c-8.1 2.2-19.4 4.9-32.4 4.9-38.6 0-56.2-20.3-56.2-54.3v-30.5c0-36.7 19.7-56.7 61-56.7zm2.2 28.7c-21.6 0-31.9 9.2-31.9 29.2V147c0 17 10.3 26.5 29.4 26.5 11.6 0 21.1-2.2 27.8-3.8V95.5c0-1.9-.5-2.4-2.4-3.2-5.9-1.7-14-3-22.9-3z"/>
</svg>
