<svg xmlns="http://www.w3.org/2000/svg" width="1522" height="287.26" viewBox="0 0 1522 287.26">
    <path fill="#FFCD9D" d="M1340.258 263.26c-29.16 0-46.44-9.99-55.892-25.92-1.757-2.578-2.545-4.85-2.37-6.86h-.07v24.502h.058c-.015 1.887.77 3.99 2.383 6.357 9.45 15.93 26.73 25.92 55.892 25.92 42.39 0 59.4-23.49 59.4-58.86v-24c-.002 35.37-17.012 58.86-59.402 58.86"/>
    <path fill="#FFCD9D" d="M1368.34 192.52c-8.103 2.16-19.44 4.86-32.4 4.86-38.613 0-56.163-20.252-56.163-54.272v24c0 34.02 17.55 54.27 56.162 54.27 12.29 0 23.12-2.428 31.115-4.52.85-3.206 1.284-6.817 1.284-10.84v-13.5zm-2.432-105.034c-5.94-1.62-14.04-2.97-22.95-2.97-21.602 0-31.86 9.18-31.86 29.16v24c0-19.98 10.26-29.16 31.86-29.16 8.91 0 17.01 1.35 22.95 2.97 1.89.81 2.43 1.35 2.43 3.24v-24c0-1.89-.54-2.43-2.43-3.24M1193.65 263.26c-29.16 0-46.44-9.99-56.16-25.92-1.67-2.622-2.44-4.927-2.228-6.964h-.034v24.59h.012c-.024 1.89.738 4 2.25 6.373 9.72 15.93 27 25.92 56.16 25.92 42.39 0 59.4-23.49 59.4-58.86v-24c0 35.37-17.01 58.86-59.4 58.86"/>
    <path fill="#FFCD9D" d="M1221.73 193.328c-8.37 1.89-18.9 3.78-32.13 3.78-38.61 0-56.432-20.25-56.432-54.27v24c0 34.02 17.82 54.27 56.43 54.27 12.45 0 22.8-1.672 30.917-3.444 1-3.402 1.216-7.283 1.216-11.645v-12.692zM925.223 63.554v.254c.004-.09.016-.17.024-.254h-.024zm187.727 6.09l-36.183 122.852c-1.62 5.94-5.13 7.56-11.34 7.56h-9.18c-6.48 0-9.72-1.62-11.61-7.56l-19.71-69.122c-3.51-12.96-4.59-26.73-4.86-27.81h-1.35c-.27 1.08-1.62 14.85-5.13 27.81l-19.71 69.122c-1.62 5.94-5.13 7.56-11.34 7.56h-8.91c-6.21 0-9.72-1.62-11.34-7.56l-35.91-122.852c-.703-2.26-1.1-4.01-1.132-5.38v23.522c-.065 1.426.346 3.328 1.13 5.858l35.91 122.852c1.62 5.94 5.13 7.56 11.34 7.56h8.91c6.212 0 9.722-1.62 11.342-7.56l19.71-69.12c3.51-12.96 4.86-26.73 5.13-27.812h1.35c.27 1.08 1.35 14.85 4.86 27.81l19.71 69.122c1.89 5.94 5.13 7.56 11.61 7.56h9.18c6.21 0 9.72-1.62 11.34-7.56l36.182-122.852c.642-2.33.987-4.124.958-5.51h.04V63.632h-.074c.147 1.444-.2 3.39-.925 6.014M183.86 51.983V35.105c0-2.882-.28-5.134-.896-6.87-1.222 3.455-3.793 4.84-8.285 4.84h-46.442v30.62h46.44c6.75 0 9.18-3.1 9.18-11.712M47.777 33.077c-4.672 0-7.183-1.386-8.345-4.843-.585 1.738-.835 3.99-.835 6.87v16.88c0 8.612 2.16 11.713 9.18 11.713h46.44v-30.62h-46.44zm71.281 166.733h-15.66c-6.75 0-9.18-2.43-9.18-9.18v24c0 6.75 2.43 9.18 9.18 9.18h15.66c6.75 0 9.18-2.43 9.18-9.18v-24c0 6.75-2.43 9.18-9.18 9.18m81.539 0h-14.85c-6.21 0-8.37-2.16-8.37-8.37v24c0 6.21 2.16 8.37 8.37 8.37h14.85c6.21 0 8.1-2.16 8.1-8.37v-24c0 6.208-1.89 8.37-8.1 8.37m46.171-128.205l-9.72-.23c-10.53 0-18.63 1.31-25.65 3.47-2.43.54-2.7 1.89-2.7 3.24v36.912c0-1.35.27-2.7 2.7-3.24 7.02-2.16 15.12-3.24 25.65-3.24h9.72c6.21 0 8.37-2.16 8.37-8.37V75.355c0-2.85-.42-4.812-1.416-6.116-1.27 1.686-3.476 2.365-6.954 2.365m134.188 122.804c-10.8 4.32-27.27 9.45-52.92 9.45-38.61 0-56.432-20.25-56.432-54.27v24c0 34.02 17.82 54.27 56.43 54.27 25.65 0 42.122-5.13 52.922-9.45 8.64-3.51 10.53-6.75 10.53-15.12v-24c0 8.37-1.89 11.61-10.53 15.12m176.85-109.891c-10.8 0-19.98 2.7-26.19 4.86 2.16 5.67 2.97 12.69 2.97 20.25v2.762c6.012-1.916 14.025-3.873 23.22-3.873 17.55 0 26.19 8.91 26.19 26.19v-24c0-17.28-8.64-26.19-26.19-26.19m49.409 115.294h-14.85c-6.21 0-8.37-2.16-8.37-8.37v24c0 6.21 2.16 8.37 8.37 8.37h14.85c6.21 0 8.1-2.16 8.1-8.37v-24c0 6.208-1.888 8.37-8.1 8.37M476.803 84.517c-8.37 0-14.85 1.08-21.6 3.24-1.89.81-2.16 1.89-2.16 3.24v24c0-1.35.27-2.43 2.16-3.24 6.75-2.16 13.23-3.24 21.6-3.24 17.28 0 26.46 8.91 26.46 26.19v-24c.002-17.28-9.18-26.19-26.46-26.19m-31.86 115.293h-14.85c-6.21 0-8.37-2.16-8.37-8.37v24c0 6.21 2.16 8.37 8.37 8.37h14.85c6.21 0 8.1-2.16 8.1-8.37v-24c0 6.208-1.89 8.37-8.1 8.37m81.271 0h-14.58c-6.21 0-8.37-2.16-8.37-8.37v24c0 6.21 2.16 8.37 8.37 8.37h14.58c6.21 0 8.37-2.16 8.37-8.37v-24c0 6.208-2.16 8.37-8.37 8.37m177.659 4.048c-21.87 0-39.42-4.59-48.87-8.64-8.64-4.05-9.99-6.21-9.99-14.85v24c0 8.64 1.35 10.8 9.99 14.85 9.45 4.05 27 8.64 48.87 8.64 41.31 0 61.02-20.25 61.02-57.24v-24c0 36.99-19.71 57.24-61.02 57.24m.269-119.341c-11.34 0-21.33 2.7-27.81 4.86v24c6.48-2.16 16.47-4.86 27.81-4.86 19.17 0 29.43 9.45 29.43 26.46v-24c0-17.01-10.26-26.46-29.43-26.46m145.258-.27c-19.71 0-30.78 9.18-30.78 25.65v24c0-16.47 11.07-25.65 30.78-25.65 19.98 0 31.05 9.18 31.05 25.65v-24c0-16.47-11.07-25.65-31.05-25.65m0 119.611c-39.96 0-62.102-20.52-62.102-54v24c0 33.478 22.142 54 62.102 54 40.5 0 62.37-20.52 62.37-54v-24c0 33.48-21.87 54-62.37 54M925.223 64.29v-.482c-.007.152-.004.317 0 .48"/>
    <path fill="#FFD23E" d="M1115 115.417c260 0 344.89 11.12 395.905 62.135 5.295 3.076 11.095-.747 11.095-6.872V56.47c0-6.125-5.8-9.986-11.095-6.91C1462.193 98.276 1382 111.05 1115 111.05v4.367z"/>
    <path fill="#FFF" d="M183.883 17.28v13.23c0 6.75-2.43 9.18-9.18 9.18h-46.44v150.933c0 6.75-2.43 9.18-9.18 9.18h-15.66c-6.75 0-9.182-2.43-9.182-9.18V39.69H47.8c-7.02 0-9.18-2.43-9.18-9.18V17.28c0-6.75 2.16-9.18 9.18-9.18h126.903c6.75 0 9.18 2.43 9.18 9.18m62.909 38.61c6.21 0 8.37 1.89 8.37 8.37v11.88c0 6.21-2.16 8.37-8.37 8.37h-9.72c-10.53 0-18.63 1.08-25.65 3.24-2.43.54-2.7 1.89-2.7 3.24v100.442c0 6.21-1.89 8.37-8.1 8.37h-14.85c-6.21 0-8.37-2.16-8.37-8.37V79.38c0-8.64 1.89-11.88 10.53-15.39 9.99-3.78 26.19-7.56 50.22-8.1h8.64zM391.51 68.04v111.242c0 8.37-1.89 11.61-10.53 15.12-10.8 4.32-27.27 9.45-52.92 9.45-38.612 0-56.432-20.25-56.432-54.27v-81.54c0-6.212 2.16-8.102 8.37-8.102h14.85c6.21 0 8.1 1.89 8.1 8.1v80.462c0 18.09 9.72 26.73 29.43 26.73 10.53 0 17.55-1.08 24.84-3.24 2.432-.81 2.972-2.43 2.972-4.59V68.04c0-6.212 2.16-8.102 8.37-8.102h14.58c6.21 0 8.37 1.89 8.37 8.1M562.418 55.89c36.72 0 52.92 19.71 52.92 53.73v81.813c0 6.21-1.89 8.37-8.1 8.37h-14.85c-6.21 0-8.37-2.16-8.37-8.37v-80.73c0-17.282-8.64-26.192-26.19-26.192-10.8 0-19.98 2.7-26.19 4.86 2.16 5.67 2.97 12.692 2.97 20.25v81.814c0 6.21-2.16 8.37-8.37 8.37h-14.58c-6.21 0-8.37-2.16-8.37-8.37v-80.73c0-17.282-9.18-26.192-26.46-26.192-8.37 0-14.85 1.08-21.6 3.24-1.89.81-2.16 1.89-2.16 3.24v100.442c0 6.21-1.89 8.37-8.1 8.37h-14.852c-6.21 0-8.37-2.16-8.37-8.37V80.46c0-8.64 2.16-11.88 10.53-15.39 10.53-4.32 25.38-9.18 49.14-9.18 14.312 0 25.38 2.97 33.48 8.91 9.452-3.78 24.302-8.91 47.522-8.91M676.355 8.37v52.11c8.1-1.89 19.17-4.59 32.4-4.59 38.612 0 56.162 19.98 56.162 54.27v36.452c0 36.99-19.71 57.24-61.02 57.24-21.872 0-39.42-4.59-48.872-8.64-8.64-4.052-9.99-6.21-9.99-14.85V8.368c0-6.212 2.16-8.37 8.37-8.37h14.85c6.21 0 8.1 2.158 8.1 8.37m27.81 76.14c-11.34 0-21.33 2.7-27.81 4.86v79.652c0 1.35.27 2.16 2.16 2.97 6.21 2.16 14.31 3.24 23.22 3.24 21.602 0 31.862-9.45 31.862-29.43v-34.83c0-17.01-10.26-26.46-29.43-26.46m145.257-28.62c40.5 0 62.37 20.52 62.37 54v39.96c0 33.482-21.87 54.002-62.37 54.002-39.96 0-62.1-20.52-62.1-54v-39.96c0-33.48 22.14-54.002 62.1-54.002m0 28.35c-19.71 0-30.78 9.18-30.78 25.65v39.96c0 16.202 11.07 25.652 30.78 25.652 19.98 0 31.05-9.45 31.05-25.65v-39.96c0-16.47-11.07-25.65-31.05-25.65m263.524-14.582l-36.18 122.853c-1.62 5.94-5.132 7.56-11.342 7.56h-9.18c-6.48 0-9.72-1.62-11.61-7.56l-19.71-69.122c-3.51-12.958-4.59-26.73-4.86-27.81h-1.35c-.27 1.08-1.62 14.852-5.13 27.81l-19.71 69.123c-1.62 5.94-5.13 7.56-11.34 7.56h-8.91c-6.21 0-9.72-1.62-11.34-7.56L926.375 69.66c-2.432-7.83-1.352-9.72 6.75-9.72h10.53c9.99 0 13.5 1.35 14.85 8.37l15.39 60.482c2.43 11.88 4.05 31.59 4.59 32.94h1.35c.27-1.35 2.16-20.52 5.67-33.21l17.82-59.132c2.16-7.29 3.78-8.64 13.77-8.64h6.212c9.99 0 11.61 1.35 13.77 8.37l18.09 59.4c4.05 13.772 5.4 31.862 5.67 33.21h1.62c.27-1.35 1.08-17.82 4.59-33.21l14.852-60.21c1.62-7.02 4.86-8.37 15.12-8.37h8.91c8.098 0 9.178 1.89 7.018 9.72m140.127-1.62v136.353c0 35.37-17.01 58.86-59.4 58.86-29.162 0-46.44-9.99-56.163-25.92-3.777-5.94-2.968-10.26 3.513-13.5l10.26-5.67c6.48-3.24 9.45-2.43 13.5 3.24 5.67 8.91 13.77 13.77 28.35 13.77 18.9 0 28.622-9.99 28.622-29.16v-12.69c-8.37 1.89-18.9 3.78-32.13 3.78-38.612 0-56.432-20.25-56.432-54.27V68.04c0-6.21 2.16-8.1 8.37-8.1h14.85c6.21 0 8.1 1.89 8.1 8.1v73.712c0 18.09 9.72 26.73 29.432 26.73 11.34 0 20.52-1.89 27.81-3.78v-96.66c0-6.212 2.16-8.102 8.37-8.102h14.58c6.21 0 8.37 1.89 8.37 8.1m87.744-12.15c21.87 0 39.42 4.05 48.87 8.37 8.64 4.05 9.99 6.21 9.99 14.85v125.282c0 35.37-17.01 58.86-59.4 58.86-29.16 0-46.44-9.99-55.89-25.92-4.05-5.94-2.97-10.26 3.238-13.5l10.26-5.67c6.48-3.24 9.45-2.43 13.772 3.24 5.67 8.91 13.5 13.77 28.08 13.77 18.9 0 28.62-9.99 28.62-29.16v-13.5c-8.1 2.16-19.44 4.86-32.4 4.86-38.61 0-56.16-20.252-56.16-54.272v-30.51c0-36.72 19.71-56.7 61.02-56.7m2.16 28.62c-21.602 0-31.86 9.18-31.86 29.16v28.62c0 17.01 10.26 26.46 29.43 26.46 11.61 0 21.062-2.16 27.812-3.778V90.72c0-1.89-.54-2.43-2.43-3.24-5.94-1.62-14.04-2.97-22.952-2.97"/>
    <path fill="#FFD23E" d="M26.444 181.734h67.882v5H26.444zm1032.519-34.947l.728 5h3.757l.58-5M128.2 181.734h49.22v5H128.2zm151.143 0H208.7v5h74.244c-1.53-1.83-2.747-3.62-3.6-5m843.506-70.986h-103.505l-.117 5h103.622l214.737 5.636v-16.336m-368.367 5.7l1.23 5h18.88l1.57-5M9.386 142.4c-2.714-2.717-4.384-6.444-4.386-10.587v-1.092c.002-4.142 1.672-7.87 4.386-10.587 2.718-2.713 6.445-4.384 10.588-4.386h157.462v-5H19.974C8.94 110.75 0 119.69 0 130.723v1.092c.002 11.032 8.942 19.972 19.974 19.974h74.29v-5h-74.29c-4.143-.003-7.87-1.673-10.588-4.387m1123.874 4.385h-42.96l-1.547 5h44.894c-.23-1.89-.338-3.8-.387-5"/>
    <path fill="#FFBF40" d="M24.656 194.01c-2.198 0-3.997-1.8-3.997-3.997v-11.437c0-2.198 1.798-3.996 3.996-3.996s3.997 1.798 3.997 3.996v11.437c0 2.197-1.8 3.997-3.997 3.997"/>
    <path fill="#FFD23E" d="M391.422 181.734c-.075 1.458-.363 3.42-.937 5h31.264v-5H391.42zm641.598-29.947l-1.406-5H818.546v5m-690.346-5h293.55v5H128.2zm324.896.001H584.02v5H453.097zm486.697-31.04l-1.43-5H764.94v5m-556.21-5h294.566v5H208.73zm325.826 0H733.58v5H534.556zm-81.46 70.986v5H645.62c-.497-2.056-.558-4.18-.56-5H453.096zm731.052-34.947h-19.408c.086 1.03.325 3.043.965 5h18.443c4.143 0 7.87 1.672 10.588 4.386 2.713 2.718 4.384 6.445 4.386 10.59-.002 4.14-1.673 7.868-4.386 10.586-2.72 2.713-6.445 4.384-10.588 4.385H756.02c-1.05 1.577-3.283 4.29-3.873 5h432c11.032-.002 19.973-8.942 19.974-19.973h.002c-.002-11.033-8.942-19.973-19.974-19.975m-507.837.002h110.955v5H676.312zm-61.018 0h29.75v5h-29.75z"/>
    <path fill="#F7AD5E" d="M94.244 115.763h34.015v2.572H94.243zm83.25 36.075h31.232v2.572h-31.232zm94.141-36.108h31.31v2.57h-31.31z"/>
    <path fill="#F7AD5E" d="M291.408 117.923h2.526v28.797h-2.526zm68.844-2.085h31.232v2.572h-31.232zm0 35.875h31.232v2.572h-31.232zm61.535-35.875h31.232v2.572h-31.233zm81.508 35.942h31.31v2.57h-31.31z"/>
    <path fill="#F7AD5E" d="M523.383 153.566h2.572v26.53h-2.572z"/>
    <path fill="#F7AD5E" d="M530.042 155.446h-22.185l-2-2.572h26.185M298.81 119.567h-22.185l-2-2.572h26.185m-2 38.173h-22.185l-2-2.572h26.185m229.232 37.85h-22.185l-2-2.572h26.185m52.011-72.036h31.232v2.572h-31.232zm61-.093h31.232v2.572h-31.232zm142.279.045h31.277v2.572H787.33zm120.401 38.593l-2.216 1.614-19.31-.03-1.665-1.65h-4.37l.346-2.57h31.277l-.148 2.636m-3.914-35.875l-2.216 1.614-19.31-.03-1.665-1.65h-4.073v-2.687h31.343l-.016 2.734m186.844-.171h-29.015l.644-2.572h29.152m-21.671 73.557h-33.984l-.717-2.573h35.466m85.987-66.314l-31.277-1.82v-2.573l31.277.802m88.548 6.539l-31.278-1.553v-3.46l31.277.802m-200.939-.819h-32.822l-.05-2.572h32.09m-46.578 38.603h-23.97l.353-2.572h24.32m-27.969 2.572h-26.36l-.733-2.572h26.81m-78.693 34.977l-97.852-.032 2.64 2.572h92.598s1.566-1.383 2.614-2.54m96.182 2.552h-33.346l-.698-2.572 34.84.03m-230.861-32.417h-31.75l.375-2.572h31.54m-180.737 34.854h31.232v2.572h-31.232z"/>
    <path fill="#F7AD5E" d="M503.295 186.73h31.31v2.572h-31.31zm-199.982-32.382h-31.607v-2.573h31.353m901.029 16.152c-.605 10.49-9.3 18.806-19.94 18.807h-48.22l.87 2.6h47.35c12.14 0 19.48-9.43 19.964-21.452l-.024.045z"/>
    <path fill="#FFBF40" d="M1515.063 183.442h-1.125c-3.83 0-6.938-3.105-6.938-6.937V51.115c0-3.832 3.107-6.938 6.938-6.938h1.125c3.83 0 6.937 3.106 6.937 6.937v125.392c0 3.83-3.106 6.936-6.937 6.936"/>
    <path fill="#FFD23E" d="M289.022 160.377h-3.876c-1.31 0-2.37-1.06-2.37-2.37V104.42c0-1.31 1.06-2.37 2.37-2.37h3.876c1.31 0 2.37 1.06 2.37 2.37v53.584c.002 1.31-1.06 2.37-2.37 2.37"/>
    <path fill="#FFD23E" d="M297.598 110.34v4.96c0 1.01-.82 1.828-1.83 1.828H278.4c-1.01 0-1.83-.818-1.83-1.828v-4.96c0-1.01.82-1.83 1.83-1.83h17.368c1.01 0 1.83.82 1.83 1.83m.09 36.07v4.96c0 1.01-.82 1.827-1.83 1.827h-17.367c-1.01 0-1.828-.817-1.828-1.827v-4.96c0-1.01.82-1.83 1.83-1.83h17.367c1.01 0 1.828.82 1.828 1.83m223.334 48.44h-3.875c-1.31 0-2.37-1.062-2.37-2.372V141.74c0-1.31 1.06-2.37 2.37-2.37h3.875c1.31 0 2.37 1.06 2.37 2.37v50.738c0 1.31-1.06 2.37-2.37 2.37"/>
    <path fill="#FFD23E" d="M529.598 146.787v4.96c0 1.01-.82 1.828-1.83 1.828H510.4c-1.01 0-1.83-.817-1.83-1.828v-4.96c0-1.01.82-1.83 1.83-1.83h17.368c1.01 0 1.83.82 1.83 1.83m.09 35.123v4.96c0 1.01-.82 1.827-1.83 1.827h-17.367c-1.01 0-1.828-.817-1.828-1.827v-4.96c0-1.01.82-1.83 1.83-1.83h17.367c1.01 0 1.828.82 1.828 1.83m368.667-22.25h-3.875c-1.31 0-2.37-1.06-2.37-2.37v-52.648c0-1.31 1.06-2.37 2.37-2.37h3.875c1.31 0 2.37 1.06 2.37 2.37v52.648c.002 1.31-1.06 2.37-2.37 2.37"/>
    <path fill="#FFD23E" d="M906.93 110.904v4.96c0 1.01-.817 1.828-1.828 1.828h-17.367c-1.01 0-1.83-.818-1.83-1.828v-4.96c0-1.01.82-1.83 1.83-1.83h17.367c1.01 0 1.83.82 1.83 1.83m.088 34.946v4.96c0 1.01-.818 1.828-1.828 1.828h-17.368c-1.01 0-1.83-.817-1.83-1.828v-4.96c0-1.01.82-1.83 1.83-1.83h17.368c1.01 0 1.83.82 1.83 1.83"/>
    <path fill="#F7AD5E" d="M1311.15 120.648l-31.323-.726v4.005l31.323 2.78"/>
    <path fill="#FCC74F" d="M1355.465 113.664c-48.844 0-215.89 2.035-240.465 2.035h.015c92.948 1.257 167.36 5.58 221.797 5.58 11.178.887 21.67 1.895 31.55 3.03v-10.533c-4.445-.08-8.76-.113-12.897-.113m44.229 1.577v13.46c54.928 9.307 86.913 24.554 111.21 48.852 5.296 3.077 11.096-.747 11.096-6.87V157.9c-32.64-29.156-80.04-39.297-122.306-42.66"/>
</svg>
