<?xml version="1.0" encoding="utf-8"?>
<!-- Generator: Adobe Illustrator 18.0.0, SVG Export Plug-In . SVG Version: 6.00 Build 0)  -->
<!DOCTYPE svg PUBLIC "-//W3C//DTD SVG 1.1//EN" "http://www.w3.org/Graphics/SVG/1.1/DTD/svg11.dtd">
<svg version="1.1" xmlns="http://www.w3.org/2000/svg" xmlns:xlink="http://www.w3.org/1999/xlink" x="0px" y="0px"
	 viewBox="0 0 30 30" enable-background="new 0 0 30 30" xml:space="preserve">
<g id="rails">
</g>
<g id="october">
</g>
<g id="_x39_9ko">
	<g>
		<g>
			<path fill="#FF974A" d="M2.7,10C2,10,1.3,10.4,0.8,11C0.3,11.6,0,12.4,0,13.5c0,1,0.2,1.8,0.7,2.4c0.5,0.6,1.1,0.9,1.7,0.9
				c0.3,0,0.6-0.1,0.8-0.2C3.6,16.5,3.8,16.3,4,16c-0.1,1.2-0.2,1.9-0.4,2.3c-0.2,0.4-0.5,0.6-0.9,0.6c-0.5,0-0.8-0.4-0.9-1.1
				L0.2,18c0.1,0.9,0.4,1.5,0.8,1.9c0.4,0.4,0.9,0.6,1.6,0.6c0.9,0,1.7-0.4,2.2-1.2c0.6-0.8,0.9-2.2,0.9-4.1c0-1.9-0.3-3.2-0.8-4
				C4.3,10.4,3.6,10,2.7,10z M3.5,15c-0.2,0.3-0.5,0.4-0.8,0.4c-0.3,0-0.6-0.2-0.8-0.5c-0.2-0.3-0.3-0.8-0.3-1.5
				c0-0.7,0.1-1.1,0.3-1.4c0.2-0.3,0.4-0.4,0.7-0.4c0.3,0,0.6,0.2,0.8,0.5c0.2,0.3,0.4,0.8,0.4,1.5C3.9,14.3,3.8,14.7,3.5,15z
				 M9.3,10c-0.8,0-1.4,0.3-1.9,0.9c-0.5,0.6-0.8,1.5-0.8,2.6c0,1,0.2,1.8,0.7,2.4c0.5,0.6,1.1,0.9,1.7,0.9c0.3,0,0.6-0.1,0.8-0.2
				c0.3-0.1,0.5-0.4,0.7-0.6c-0.1,1.2-0.2,1.9-0.4,2.3c-0.2,0.4-0.5,0.6-0.9,0.6c-0.5,0-0.8-0.4-0.9-1.1L6.8,18
				c0.1,0.9,0.4,1.5,0.8,1.9c0.4,0.4,0.9,0.6,1.6,0.6c0.9,0,1.7-0.4,2.2-1.2c0.6-0.8,0.9-2.2,0.9-4.1c0-1.9-0.3-3.2-0.8-4
				C10.8,10.4,10.1,10,9.3,10z M10.1,15c-0.2,0.3-0.5,0.4-0.8,0.4c-0.3,0-0.6-0.2-0.8-0.5c-0.2-0.3-0.3-0.8-0.3-1.5
				c0-0.7,0.1-1.1,0.3-1.4c0.2-0.3,0.4-0.4,0.7-0.4c0.3,0,0.6,0.2,0.8,0.5c0.2,0.3,0.4,0.8,0.4,1.5C10.4,14.3,10.3,14.7,10.1,15z
				 M21.1,10.1h-2.3l-3.4,4.6v-4.6h-1.7v10.3h1.7v-3.1l1.4-1.7l2.3,4.8h2.2l-3.3-6.3L21.1,10.1z M28.8,11.3
				c-0.8-0.9-1.7-1.4-2.9-1.4c-0.8,0-1.5,0.2-2.1,0.6c-0.6,0.4-1.1,1-1.4,1.8c-0.4,0.8-0.5,1.8-0.5,3c0,1.7,0.4,3,1.2,4
				c0.7,0.8,1.7,1.3,2.9,1.3c1.2,0,2.2-0.4,2.9-1.3c0.8-1,1.2-2.3,1.2-4C30,13.5,29.6,12.2,28.8,11.3z M27.5,17.9
				c-0.4,0.6-1,0.9-1.7,0.9c-0.7,0-1.2-0.3-1.7-0.9c-0.4-0.6-0.7-1.5-0.7-2.7c0-1.2,0.2-2.1,0.7-2.7c0.4-0.6,1-0.9,1.7-0.9
				c0.7,0,1.3,0.3,1.7,0.9c0.4,0.6,0.6,1.5,0.6,2.6C28.2,16.4,28,17.3,27.5,17.9z"/>
		</g>
	</g>
</g>
<g id="django">
</g>
<g id="rip">
</g>
<g id="maitre_yii">
</g>
<g id="angular">
</g>
</svg>
