<?xml version="1.0" encoding="utf-8"?>
<!-- Generator: Adobe Illustrator 18.0.0, SVG Export Plug-In . SVG Version: 6.00 Build 0)  -->
<!DOCTYPE svg PUBLIC "-//W3C//DTD SVG 1.1//EN" "http://www.w3.org/Graphics/SVG/1.1/DTD/svg11.dtd">
<svg version="1.1" xmlns="http://www.w3.org/2000/svg" xmlns:xlink="http://www.w3.org/1999/xlink" x="0px" y="0px"
	 viewBox="0 0 30 30" enable-background="new 0 0 30 30" xml:space="preserve">
<g id="rails">
</g>
<g id="october">
</g>
<g id="_x39_9ko">
</g>
<g id="django">
	<g>
		<g>
			<path fill="#FF974A" d="M3.5,10.3h1.6v7.6c-0.8,0.2-1.5,0.2-2.1,0.2c-2,0-3-0.9-3-2.6c0-1.7,1.1-2.8,2.8-2.8c0.3,0,0.5,0,0.7,0.1
				C3.5,12.8,3.5,10.3,3.5,10.3z M3.5,14.1c-0.2-0.1-0.4-0.1-0.6-0.1c-0.8,0-1.3,0.5-1.3,1.4c0,0.9,0.5,1.3,1.3,1.3
				c0.2,0,0.3,0,0.6,0V14.1z"/>
			<path fill="#FF974A" d="M7.8,12.9v3.8c0,1.3-0.1,1.9-0.4,2.5C7.1,19.7,6.8,20,6,20.3l-1.5-0.7c0.7-0.3,1.1-0.6,1.3-1.1
				c0.2-0.5,0.3-1,0.3-2.4v-3.2H7.8z M6.1,10.3h1.6V12H6.1V10.3z"/>
			<path fill="#FF974A" d="M8.8,13.2c0.7-0.3,1.4-0.5,2.2-0.5c0.8,0,1.4,0.2,1.6,0.7c0.1,0.2,0.2,0.6,0.2,1.2V18
				c-0.7,0.1-1.7,0.2-2.3,0.2c-1.4,0-2-0.5-2-1.5c0-1.1,0.8-1.7,2.8-1.8v-0.4c0-0.3-0.1-0.4-0.6-0.4c-0.6,0-1.3,0.2-1.9,0.5
				L8.8,13.2L8.8,13.2z M11.3,15.8c-1.1,0.1-1.4,0.3-1.4,0.7c0,0.3,0.2,0.5,0.6,0.5c0.2,0,0.5,0,0.8-0.1L11.3,15.8L11.3,15.8z"/>
			<path fill="#FF974A" d="M13.5,13.1c1-0.3,1.8-0.4,2.6-0.4c0.8,0,1.4,0.2,1.8,0.6c0.3,0.4,0.4,0.7,0.4,1.6v3.2h-1.6v-3.1
				c0-0.6-0.2-0.9-0.8-0.9c-0.2,0-0.4,0-0.8,0.1v3.9h-1.6V13.1z"/>
			<path fill="#FF974A" d="M19,19c0.6,0.3,1.1,0.4,1.8,0.4c1.1,0,1.5-0.4,1.5-1.5c0,0,0,0,0,0c-0.3,0.2-0.6,0.2-1.1,0.2
				c-1.4,0-2.3-0.9-2.3-2.4c0-1.9,1.3-2.9,3.7-2.9c0.7,0,1.3,0.1,2.1,0.2l-0.6,1.2c-0.4-0.1,0,0-0.4,0v0.2l0,0.7l0,0.9
				c0,0.2,0,0.4,0,0.7c0,0.2,0,0.3,0,0.4c0,1.4-0.1,2.1-0.5,2.6c-0.5,0.8-1.4,1.2-2.6,1.2c-0.6,0-1.2-0.1-1.8-0.3L19,19L19,19z
				 M22.3,14.1C22.2,14.1,22.2,14.1,22.3,14.1h-0.2c-0.3,0-0.7,0.1-0.9,0.2c-0.4,0.2-0.6,0.6-0.6,1.2c0,0.8,0.4,1.3,1.1,1.3
				c0.2,0,0.4,0,0.6-0.1v-0.1v-0.4c0-0.2,0-0.4,0-0.6l0-0.8l0-0.5L22.3,14.1L22.3,14.1z"/>
			<path fill="#FF974A" d="M27.3,12.7c1.6,0,2.6,1,2.6,2.7c0,1.7-1,2.8-2.7,2.8c-1.6,0-2.6-1-2.6-2.7C24.6,13.8,25.6,12.7,27.3,12.7
				z M27.3,16.9c0.6,0,1-0.5,1-1.4c0-0.9-0.4-1.4-1-1.4c-0.6,0-1,0.5-1,1.4C26.3,16.4,26.6,16.9,27.3,16.9z"/>
		</g>
	</g>
</g>
<g id="rip">
</g>
<g id="maitre_yii">
</g>
<g id="angular">
</g>
</svg>
