<?xml version="1.0" encoding="utf-8"?>
<!-- Generator: Adobe Illustrator 18.0.0, SVG Export Plug-In . SVG Version: 6.00 Build 0)  -->
<!DOCTYPE svg PUBLIC "-//W3C//DTD SVG 1.1//EN" "http://www.w3.org/Graphics/SVG/1.1/DTD/svg11.dtd">
<svg version="1.1" xmlns="http://www.w3.org/2000/svg" xmlns:xlink="http://www.w3.org/1999/xlink" x="0px" y="0px"
	 viewBox="0 0 30 30" enable-background="new 0 0 30 30" xml:space="preserve">
<g id="rails">
</g>
<g id="october">
	<path fill="#FF974A" d="M14.4,0C9.4,0,3.6,10,4.2,18.6C4.9,27.2,13.4,30,13.4,30l1.1-25.4c0-0.1,0.1-0.1,0.1-0.1c0,0,0.1,0,0.1,0.1
		l0.7,5.5l2.3-1.8c0,0,0.1,0,0.1,0C18,8.3,18,8.4,18,8.5l-2.5,3.6v9.1l5-4.5c0,0,0.1,0,0.1,0c0.1,0,0.2,0.1,0.1,0.2l-5.2,6.9V30
		c6.4,0,11.2-9.7,11.2-16.6C26.6,6.4,19.5,0.2,14.4,0C14.5,0,14.4,0,14.4,0"/>
</g>
<g id="_x39_9ko">
</g>
<g id="django">
</g>
<g id="rip">
</g>
<g id="maitre_yii">
</g>
<g id="angular">
</g>
</svg>
