<?xml version="1.0" encoding="utf-8"?>
<!-- Generator: Adobe Illustrator 18.0.0, SVG Export Plug-In . SVG Version: 6.00 Build 0)  -->
<!DOCTYPE svg PUBLIC "-//W3C//DTD SVG 1.1//EN" "http://www.w3.org/Graphics/SVG/1.1/DTD/svg11.dtd">
<svg version="1.1" xmlns="http://www.w3.org/2000/svg" xmlns:xlink="http://www.w3.org/1999/xlink" x="0px" y="0px"
	 viewBox="0 0 30 30" enable-background="new 0 0 30 30" xml:space="preserve">
<g id="rails">
	<g>
		<g>
			<path fill="#FF974A" d="M8.8,26.5c0-1.5-1.1-1.7-2.4-1.7H4.7V30H6v-1.4l1.2,1.2h2l-1.6-1.6C7.6,28.2,8.7,28.2,8.8,26.5z
				 M7.2,27.1H6v-0.9h1.1V27.1z M11.9,24.8c-0.1,0-0.2,0-0.3,0c-0.7,0-1.7,0.1-1.7,1.4v3.6h1.3V29h1.3v0.9h1.3v-3.8
				C13.8,24.9,12.6,24.8,11.9,24.8z M12.5,27.6h-1.2v-1.4h1.2V27.6z M15.2,29.8h1.4v-5h-1.4V29.8z M19.3,24.9l-1.3,0v5h3.3v-1.3
				h-1.9V24.9z M24.3,26.7c-0.5,0-0.9,0-0.9,0v-0.5h2.2v-1.3c0,0-0.7,0-1.9,0c-1.2,0-1.8,0.5-1.8,1.7c0,1.2,1.1,1.5,1.8,1.5
				c0.6,0,0.9,0.1,0.9,0.3c0,0.2,0,0.4-0.6,0.4c-0.6,0-2,0-2,0v1.2c0,0,0.3,0,1.7,0s2.1-0.1,2.1-1.7C25.8,26.7,24.8,26.7,24.3,26.7z
				 M19,1.3c-4.3,0.4-7.2,3.3-9,6.8c-1.8,3.5-2.9,6-3.6,9.7c-0.7,3.7-0.4,5.6-0.4,5.6h11.3c0,0-2.5-5.9-1.9-11.3
				c0.6-5.4,4.8-7.9,7.1-8.1c2.3-0.3,3.6,1.2,3.6,1.2l0.5-0.8C26.6,4.4,23.2,0.9,19,1.3z M5.9,17.6l-2.2-0.2l-0.3,2.2l2.1,0.3
				L5.9,17.6z M7.7,10.9l-2-0.8L5.1,12l2,0.7L7.7,10.9z M11,5.3l-1.5-1L8.4,5.7l1.5,1.1L11,5.3z M15.3,1.7l-1-1.2l-1.4,0.7l1,1.3
				L15.3,1.7z M19.9,1.1l-0.2-1.1l-1.8-0.1l0.3,1.3L19.9,1.1z M25.2,2.3l-1.4-1.1l0,0.8L25,2.7L25.2,2.3z M24.7,4.9l-1.1-0.3v0.7
				l1.1,0.1V4.9z M19.9,5.2l0.6,1.1l0.8-0.7l-0.2-0.7L19.9,5.2z M19,7.8l-0.9-1.3l-0.9,0.8l1.2,1.4L19,7.8z M15.9,11.3l1.4,1.3
				l0.3-1.4l-1.2-1L15.9,11.3z M15.8,15.7l1.8,0.8L17.5,15l-1.6-0.9L15.8,15.7z M19,21.3l-0.8-1.7h-1.9l0.4,1.6L19,21.3z"/>
		</g>
	</g>
</g>
<g id="october">
</g>
<g id="_x39_9ko">
</g>
<g id="django">
</g>
<g id="rip">
</g>
<g id="maitre_yii">
</g>
<g id="angular">
</g>
</svg>
