<?xml version="1.0" encoding="utf-8"?>
<!-- Generator: Adobe Illustrator 21.0.0, SVG Export Plug-In . SVG Version: 6.00 Build 0)  -->
<svg version="1.1" id="Layer_1" xmlns="http://www.w3.org/2000/svg" xmlns:xlink="http://www.w3.org/1999/xlink" x="0px" y="0px"
	 viewBox="0 0 37.7 33.5" style="enable-background:new 0 0 37.7 33.5;" xml:space="preserve">
<style type="text/css">
	.st0{fill:#FF974A;}
</style>
<g id="october">
</g>
<g id="_x39_9ko">
</g>
<g id="django">
</g>
<g id="rip">
</g>
<g id="maitre_yii">
</g>
<g id="angular">
</g>
<g>
	<circle class="st0" cx="18.8" cy="16.7" r="3.4"/>
	<path class="st0" d="M37.5,15.8c-0.2-0.5-0.5-1-0.8-1.5c-0.3-0.3-0.6-0.7-1-1c-0.6-0.5-1.3-0.9-2.1-1.3c-0.8-0.4-1.7-0.8-2.6-1.1
		c-0.4-0.1-0.8-0.3-1.2-0.4c0.1-0.3,0.1-0.6,0.2-0.8c0.3-1.4,0.4-2.6,0.4-3.8c0-1.3-0.2-2.4-0.5-3.3c-0.2-0.5-0.4-0.9-0.7-1.2
		c-0.3-0.4-0.6-0.7-1-0.9c-0.3-0.1-0.5-0.3-0.8-0.3C27.1,0,26.8,0,26.5,0c-0.5,0-1,0.1-1.5,0.2c-0.8,0.2-1.6,0.6-2.5,1.1
		c-0.9,0.5-1.8,1.2-2.7,2c-0.3,0.3-0.6,0.6-0.9,0.9c-0.2-0.2-0.4-0.4-0.6-0.6c-1.3-1.1-2.5-2-3.7-2.6c-0.6-0.3-1.2-0.5-1.7-0.7
		C12.2,0.1,11.7,0,11.1,0c-0.3,0-0.6,0-0.9,0.1C9.9,0.2,9.6,0.3,9.4,0.5C9,0.7,8.7,1,8.4,1.3C8.2,1.6,8,1.9,7.9,2.2
		c-0.2,0.5-0.4,1-0.5,1.6C7.3,4.4,7.3,5.1,7.3,5.7c0,1.1,0.1,2.2,0.4,3.5c0.1,0.4,0.2,0.8,0.3,1.2c-0.5,0.1-0.9,0.3-1.4,0.4
		c-1,0.3-1.9,0.7-2.6,1.1c-0.6,0.3-1.1,0.6-1.6,1c-0.7,0.5-1.3,1.1-1.7,1.7c-0.2,0.3-0.4,0.6-0.5,1C0.1,16,0,16.4,0,16.7
		c0,0.3,0.1,0.6,0.1,0.9c0.2,0.5,0.5,1,0.8,1.5c0.6,0.7,1.4,1.4,2.4,2c1,0.6,2.2,1.2,3.5,1.6c0.3,0.1,0.7,0.2,1,0.3
		c-0.1,0.5-0.2,0.9-0.3,1.3c-0.2,1.2-0.3,2.3-0.3,3.3c0,1.2,0.2,2.3,0.5,3.2c0.2,0.5,0.4,0.9,0.7,1.2c0.3,0.4,0.6,0.7,1,0.9
		c0.3,0.2,0.6,0.3,0.9,0.3c0.3,0.1,0.6,0.1,0.9,0.1c0.5,0,1-0.1,1.6-0.2c0.8-0.2,1.7-0.6,2.6-1.1c0.9-0.5,1.8-1.2,2.8-2
		c0.3-0.2,0.5-0.5,0.8-0.7c0.3,0.3,0.7,0.6,1,0.9c1.2,1,2.3,1.8,3.4,2.3c0.6,0.3,1.1,0.5,1.6,0.6c0.5,0.1,1,0.2,1.5,0.2
		c0.3,0,0.6,0,0.9-0.1c0.3-0.1,0.6-0.2,0.8-0.3c0.4-0.2,0.7-0.5,1-0.9c0.2-0.3,0.4-0.6,0.5-0.9c0.2-0.5,0.4-1.1,0.5-1.7
		c0.1-0.6,0.2-1.3,0.2-2c0-1.1-0.1-2.2-0.4-3.5c-0.1-0.3-0.1-0.7-0.2-1c0.2-0.1,0.5-0.1,0.7-0.2c1.1-0.4,2-0.8,2.9-1.2
		c0.6-0.3,1.2-0.7,1.7-1.1c0.8-0.6,1.4-1.2,1.8-1.8c0.2-0.3,0.4-0.7,0.5-1c0.1-0.3,0.2-0.7,0.2-1.1C37.7,16.4,37.6,16.1,37.5,15.8z
		 M20.8,4.5C22,3.5,23,2.8,24,2.3c0.5-0.2,0.9-0.4,1.4-0.5c0.4-0.1,0.8-0.2,1.1-0.2c0.2,0,0.4,0,0.5,0.1c0.2,0,0.3,0.1,0.4,0.2
		c0.2,0.1,0.3,0.2,0.5,0.5c0.1,0.2,0.2,0.4,0.3,0.6c0.2,0.4,0.3,0.8,0.4,1.3c0.1,0.5,0.1,1.1,0.1,1.7c0,1-0.1,2.2-0.4,3.5
		c-0.1,0.2-0.1,0.5-0.2,0.7c-0.9-0.2-1.8-0.4-2.8-0.5c-0.7-0.1-1.5-0.2-2.2-0.3c-0.4-0.6-0.8-1.1-1.2-1.6c-0.7-0.8-1.3-1.6-2-2.4
		C20.3,5,20.6,4.8,20.8,4.5z M12.2,12.9c-0.4,0.6-0.7,1.3-1.1,1.9c-0.1-0.3-0.2-0.5-0.3-0.8c-0.3-0.8-0.6-1.7-0.9-2.5
		c0.8-0.2,1.6-0.3,2.5-0.5c0.3,0,0.6-0.1,0.9-0.1C12.9,11.6,12.6,12.3,12.2,12.9z M11.1,18.7c0.3,0.6,0.7,1.3,1.1,1.9h0
		c0.4,0.7,0.8,1.3,1.2,1.9c-0.3,0-0.5-0.1-0.8-0.1c-1-0.1-1.9-0.3-2.7-0.5c0.2-0.8,0.5-1.6,0.9-2.5C10.9,19.2,11,18.9,11.1,18.7z
		 M13.6,19.8c-0.6-1-1.1-2-1.6-3c0.5-1,1-2,1.6-3h0c0.6-1,1.2-2,1.8-2.9c1.1-0.1,2.3-0.1,3.4-0.1c1.2,0,2.3,0,3.4,0.1
		c0.6,0.9,1.2,1.9,1.8,2.9c0.6,1,1.1,2,1.6,3c-0.5,1-1,2-1.6,3c-0.6,1-1.2,2-1.8,2.9c-1.1,0.1-2.3,0.1-3.4,0.1c-1.2,0-2.3,0-3.4-0.1
		C14.8,21.8,14.2,20.8,13.6,19.8z M25.5,20.6c0.4-0.7,0.7-1.3,1.1-2c0.1,0.2,0.2,0.5,0.3,0.7c0.4,0.9,0.7,1.8,1,2.6
		c-0.9,0.2-1.9,0.4-2.9,0.5c-0.2,0-0.4,0-0.6,0.1C24.7,21.9,25.1,21.2,25.5,20.6z M26.8,14.3c-0.1,0.2-0.1,0.4-0.2,0.5
		c-0.3-0.7-0.7-1.3-1.1-2c-0.4-0.6-0.8-1.3-1.1-1.9c0.3,0,0.6,0.1,0.8,0.1c0.9,0.1,1.8,0.3,2.6,0.5C27.5,12.5,27.2,13.4,26.8,14.3z
		 M18.8,6.5c0.6,0.7,1.2,1.4,1.9,2.2c0.1,0.2,0.2,0.3,0.4,0.5c-0.7,0-1.5-0.1-2.2-0.1c-0.7,0-1.5,0-2.2,0.1c0.2-0.2,0.3-0.4,0.5-0.7
		C17.7,7.8,18.3,7.1,18.8,6.5z M9.3,3.1c0.1-0.3,0.3-0.6,0.4-0.8C9.8,2.1,10,2,10.2,1.9c0.1-0.1,0.3-0.1,0.4-0.2
		c0.2,0,0.3-0.1,0.6-0.1c0.3,0,0.7,0.1,1.2,0.2c0.7,0.2,1.4,0.5,2.3,1c0.8,0.5,1.7,1.1,2.6,1.9c0.2,0.2,0.4,0.3,0.6,0.5
		c-0.6,0.7-1.2,1.4-1.9,2.2C15.4,8,15,8.6,14.5,9.3c-0.8,0.1-1.6,0.2-2.3,0.3c-0.9,0.1-1.8,0.3-2.7,0.5C9.4,9.7,9.3,9.3,9.2,8.9
		C9,7.7,8.9,6.7,8.9,5.7C8.9,4.7,9,3.8,9.3,3.1z M8.3,21.6c-0.3-0.1-0.6-0.2-0.9-0.3c-1-0.3-1.8-0.7-2.5-1.1c-0.6-0.3-1-0.6-1.5-0.9
		c-0.6-0.5-1.1-1-1.4-1.4c-0.1-0.2-0.3-0.4-0.3-0.6c-0.1-0.2-0.1-0.4-0.1-0.5c0-0.1,0-0.3,0.1-0.4c0.1-0.3,0.3-0.6,0.5-0.9
		c0.2-0.2,0.5-0.5,0.8-0.8c0.5-0.4,1-0.8,1.7-1.1c0.7-0.4,1.5-0.7,2.4-1c0.4-0.1,0.8-0.3,1.3-0.4c0.3,0.9,0.6,1.8,0.9,2.7
		c0.3,0.7,0.6,1.4,0.9,2.1c-0.3,0.7-0.6,1.5-0.9,2.2C8.9,19.8,8.6,20.7,8.3,21.6z M17.1,28.9c-1.1,1-2.3,1.8-3.3,2.2
		c-0.5,0.2-1,0.4-1.4,0.5c-0.4,0.1-0.8,0.2-1.2,0.2c-0.2,0-0.4,0-0.6-0.1c-0.2,0-0.3-0.1-0.4-0.2c-0.2-0.1-0.3-0.2-0.5-0.4
		c-0.1-0.2-0.2-0.3-0.3-0.6c-0.2-0.3-0.3-0.8-0.4-1.2c-0.1-0.5-0.1-1-0.1-1.6c0-0.9,0.1-1.9,0.3-3c0.1-0.4,0.2-0.8,0.3-1.3
		c0.9,0.2,1.9,0.4,2.9,0.5c0.7,0.1,1.4,0.2,2.1,0.2c0.5,0.6,0.9,1.3,1.4,1.9c0.6,0.8,1.2,1.5,1.8,2.1C17.5,28.5,17.3,28.7,17.1,28.9
		z M18.9,27.1c-0.6-0.6-1.1-1.3-1.7-2c-0.2-0.2-0.4-0.5-0.6-0.7c0.7,0,1.5,0,2.2,0c0.8,0,1.5,0,2.3-0.1c-0.1,0.2-0.3,0.4-0.4,0.6
		C20.1,25.7,19.5,26.4,18.9,27.1z M28.4,30.3c-0.1,0.4-0.3,0.6-0.5,0.9c-0.2,0.2-0.3,0.4-0.5,0.5c-0.1,0.1-0.3,0.1-0.4,0.2
		c-0.2,0-0.3,0.1-0.5,0.1c-0.3,0-0.7-0.1-1.1-0.2c-0.6-0.2-1.3-0.5-2.1-0.9c-0.7-0.4-1.5-1-2.4-1.7c-0.3-0.3-0.6-0.6-0.9-0.9
		c0.6-0.7,1.3-1.5,1.9-2.3c0.4-0.5,0.8-1.1,1.2-1.7c0.7-0.1,1.3-0.1,1.9-0.2c1.1-0.1,2.2-0.3,3.2-0.6c0.1,0.3,0.1,0.6,0.2,0.9
		c0.2,1.2,0.3,2.2,0.3,3.2C28.8,28.7,28.7,29.6,28.4,30.3z M36,17.2c-0.1,0.3-0.3,0.6-0.6,1c-0.2,0.3-0.5,0.5-0.9,0.8
		c-0.5,0.4-1.2,0.8-1.9,1.2C31.9,20.6,31,21,30,21.3c-0.2,0.1-0.4,0.1-0.6,0.2c-0.3-0.9-0.6-1.9-1-2.8c-0.3-0.6-0.6-1.3-0.9-1.9
		c0.3-0.6,0.5-1.2,0.8-1.8c0.4-1,0.8-2,1.1-2.9c0.4,0.1,0.8,0.2,1.1,0.4c0.9,0.3,1.7,0.7,2.5,1c0.5,0.3,1,0.6,1.4,0.9
		c0.6,0.4,1.1,0.9,1.3,1.3c0.1,0.2,0.2,0.4,0.3,0.6c0.1,0.2,0.1,0.3,0.1,0.5C36.1,16.9,36,17,36,17.2z"/>
</g>
</svg>
