<?xml version="1.0" encoding="utf-8"?>
<!-- Generator: Adobe Illustrator 18.0.0, SVG Export Plug-In . SVG Version: 6.00 Build 0)  -->
<!DOCTYPE svg PUBLIC "-//W3C//DTD SVG 1.1//EN" "http://www.w3.org/Graphics/SVG/1.1/DTD/svg11.dtd">
<svg version="1.1" id="Calque_1" xmlns="http://www.w3.org/2000/svg" xmlns:xlink="http://www.w3.org/1999/xlink" x="0px" y="0px"
	 viewBox="0 0 72 72" enable-background="new 0 0 72 72" xml:space="preserve">
<path d="M19.7,31.3c-0.2,0-0.4,0-0.6,0c0.9-1.3,2.1-2.5,3.8-3.6c2.3-1.6,5.6-3,10.3-3.7l-1.6-9.9c-5.2,0.8-9.5,2.4-13,4.5
	c-2.6,1.6-4.8,3.5-6.5,5.5c-2.6,3.1-4.1,6.4-5,9.5c-0.9,3.1-1.1,6-1.1,8.4c0,2.6,0.3,4.5,0.5,5.4c0,0.2,0.1,0.3,0.1,0.5c0,0,0,0,0,0
	l0,0c1.4,6.1,6.8,10.6,13.3,10.6c7.5,0,13.6-6.1,13.6-13.6S27.2,31.3,19.7,31.3z"/>
<path d="M51.2,31.3c-0.2,0-0.4,0-0.6,0c0.9-1.3,2.1-2.5,3.8-3.6c2.3-1.6,5.6-3,10.3-3.7L63,14.1c-5.2,0.8-9.5,2.4-13,4.5
	c-2.6,1.6-4.8,3.5-6.5,5.5c-2.6,3.1-4.1,6.4-5,9.5c-0.9,3.1-1.1,6-1.1,8.4c0,2.6,0.3,4.5,0.5,5.4c0,0.2,0.1,0.3,0.1,0.5c0,0,0,0,0,0
	l0,0c1.4,6.1,6.8,10.6,13.3,10.6c7.5,0,13.6-6.1,13.6-13.6S58.7,31.3,51.2,31.3z"/>
</svg>
