<?xml version="1.0" encoding="utf-8"?>
<!-- Generator: Adobe Illustrator 18.0.0, SVG Export Plug-In . SVG Version: 6.00 Build 0)  -->
<!DOCTYPE svg PUBLIC "-//W3C//DTD SVG 1.1//EN" "http://www.w3.org/Graphics/SVG/1.1/DTD/svg11.dtd">
<svg version="1.1" id="Calque_1" xmlns="http://www.w3.org/2000/svg" xmlns:xlink="http://www.w3.org/1999/xlink" x="0px" y="0px"
	 viewBox="0 0 72 72" enable-background="new 0 0 72 72" xml:space="preserve">
<path d="M32.1,46.3l-5.3,5.3c-0.6,0.6-1.3,0.7-1.7,0.7c-0.4,0-1.1-0.1-1.7-0.7l-4-4c-0.9-0.9-0.9-2.4,0-3.3l4.8-4.8
	c0-0.1,0.1-0.1,0.1-0.2l5.1-5.1c-1-0.4-2-0.7-3-0.7c-1.8,0-3.6,0.7-5,2.1l-5.3,5.3c-2.7,2.7-2.7,7.2,0,9.9l4,4
	c1.4,1.4,3.2,2.1,5,2.1c1.8,0,3.6-0.7,5-2.1l5.3-5.3c2.2-2.2,2.6-5.4,1.4-8L32.1,46.3C32.1,46.3,32.1,46.3,32.1,46.3z"/>
<path d="M38.1,25.6l5.3-5.3c0.6-0.6,1.3-0.7,1.7-0.7c0.4,0,1.1,0.1,1.7,0.7l4,4c0.9,0.9,0.9,2.4,0,3.3l-4.8,4.8
	c0,0.1-0.1,0.1-0.1,0.2l-5.1,5.1c1,0.4,2,0.7,3,0.7c1.8,0,3.6-0.7,5-2.1L54,31c2.7-2.7,2.7-7.2,0-9.9l-4-4c-1.4-1.4-3.2-2.1-5-2.1
	c-1.8,0-3.6,0.7-5,2.1l-5.3,5.3c-2.2,2.2-2.6,5.4-1.4,8L38.1,25.6C38,25.6,38,25.6,38.1,25.6z"/>
<path d="M42.4,31.8c0.2-0.2,0.3-0.4,0.3-0.7c0-0.3-0.1-0.5-0.3-0.7l-1.8-1.8c-0.2-0.2-0.4-0.3-0.7-0.3c-0.3,0-0.5,0.1-0.7,0.3
	L28.1,39.7c-0.2,0.2-0.3,0.4-0.3,0.7c0,0.3,0.1,0.5,0.3,0.7l1.8,1.8c0.2,0.2,0.4,0.3,0.7,0.3c0.3,0,0.5-0.1,0.7-0.3L42.4,31.8z"/>
<g>
	<path d="M46.8,51.4h-6.6v-3.9h6.6v-6.9h4.1v6.9h6.6v3.9h-6.6v6.9h-4.1V51.4z"/>
</g>
</svg>
