<?xml version="1.0" encoding="utf-8"?>
<!-- Generator: Adobe Illustrator 18.0.0, SVG Export Plug-In . SVG Version: 6.00 Build 0)  -->
<!DOCTYPE svg PUBLIC "-//W3C//DTD SVG 1.1//EN" "http://www.w3.org/Graphics/SVG/1.1/DTD/svg11.dtd">
<svg version="1.1" id="Calque_1" xmlns="http://www.w3.org/2000/svg" xmlns:xlink="http://www.w3.org/1999/xlink" x="0px" y="0px"
	 viewBox="0 0 72 72" enable-background="new 0 0 72 72" xml:space="preserve">
<path d="M29.8,52.1l-8.7,8.7c-1,1-2.1,1.1-2.7,1.1c-0.6,0-1.8-0.1-2.7-1.1l-6.7-6.7c-1.5-1.5-1.5-4,0-5.5l7.9-7.9
	c0.1-0.1,0.1-0.2,0.2-0.2l8.4-8.4c-1.6-0.7-3.3-1.1-5-1.1c-3,0-6,1.1-8.2,3.4l-8.7,8.7c-4.5,4.5-4.5,11.9,0,16.5l6.7,6.7
	c2.3,2.3,5.2,3.4,8.2,3.4c3,0,6-1.1,8.2-3.4l8.7-8.7c3.6-3.6,4.3-8.9,2.3-13.2L29.8,52.1C29.8,52.1,29.8,52.1,29.8,52.1z"/>
<path d="M39.7,17.8l8.7-8.7c1-1,2.1-1.1,2.7-1.1c0.6,0,1.8,0.1,2.7,1.1l6.7,6.7c1.5,1.5,1.5,4,0,5.5l-7.9,7.9
	c-0.1,0.1-0.1,0.2-0.2,0.2l-8.4,8.4c1.6,0.7,3.3,1.1,5,1.1c3,0,6-1.1,8.2-3.4l8.7-8.7c4.5-4.5,4.5-11.9,0-16.5l-6.7-6.7
	c-2.3-2.3-5.2-3.4-8.2-3.4c-3,0-6,1.1-8.2,3.4l-8.7,8.7c-3.6,3.6-4.3,8.9-2.3,13.2L39.7,17.8C39.7,17.9,39.7,17.9,39.7,17.8z"/>
<path d="M46.9,28.2c0.3-0.3,0.5-0.7,0.5-1.1c0-0.4-0.2-0.8-0.5-1.1l-3-3c-0.3-0.3-0.7-0.5-1.1-0.5c-0.4,0-0.8,0.2-1.1,0.5L23.2,41.2
	c-0.3,0.3-0.5,0.7-0.5,1.1c0,0.4,0.2,0.8,0.5,1.1l3,3c0.3,0.3,0.7,0.5,1.1,0.5c0.4,0,0.8-0.2,1.1-0.5L46.9,28.2z"/>
<g>
	<path d="M54.3,60.5h-11V54h11V42.5H61V54h11v6.5H61V72h-6.7V60.5z"/>
</g>
</svg>
