<?xml version="1.0" encoding="utf-8"?>
<!-- Generator: Adobe Illustrator 18.0.0, SVG Export Plug-In . SVG Version: 6.00 Build 0)  -->
<!DOCTYPE svg PUBLIC "-//W3C//DTD SVG 1.1//EN" "http://www.w3.org/Graphics/SVG/1.1/DTD/svg11.dtd">
<svg version="1.1" id="Calque_1" xmlns="http://www.w3.org/2000/svg" xmlns:xlink="http://www.w3.org/1999/xlink" x="0px" y="0px"
	 viewBox="0 0 72 72" enable-background="new 0 0 72 72" xml:space="preserve">
<g>
	<polygon points="22.6,0 0,0 0,5.6 0,5.7 0,5.7 0,22 8.3,13.9 21.4,27.1 27.1,21.4 14,8.4 	"/>
	<polygon points="50,0 58.1,8.3 44.9,21.4 50.6,27.1 63.6,14 72,22.6 72,0 	"/>
	<polygon points="50.6,44.9 44.9,50.6 58,63.6 49.4,72 72,72 72,50 63.7,58.1 	"/>
	<polygon points="21.4,44.9 8.4,58 0,49.4 0,66.3 0,66.3 0,66.4 0,72 22,72 13.9,63.7 27.1,50.6 	"/>
</g>
</svg>
