<?xml version="1.0" encoding="utf-8"?>
<!-- Generator: Adobe Illustrator 18.0.0, SVG Export Plug-In . SVG Version: 6.00 Build 0)  -->
<!DOCTYPE svg PUBLIC "-//W3C//DTD SVG 1.1//EN" "http://www.w3.org/Graphics/SVG/1.1/DTD/svg11.dtd">
<svg version="1.1" id="Calque_1" xmlns="http://www.w3.org/2000/svg" xmlns:xlink="http://www.w3.org/1999/xlink" x="0px" y="0px"
	 viewBox="0 0 72 72" enable-background="new 0 0 72 72" xml:space="preserve">
<g>
	<polygon points="25.2,7.1 7.1,7.1 7.1,11.6 7.1,11.6 7.1,11.7 7.1,24.8 13.8,18.3 24.3,28.8 28.8,24.3 18.4,13.8"/>
	<polygon points="47.2,7.1 53.7,13.8 43.2,24.3 47.7,28.8 58.2,18.4 64.9,25.2 64.9,7.1"/>
	<polygon points="47.7,43.2 43.2,47.7 53.6,58.2 46.8,64.9 64.9,64.9 64.9,47.2 58.2,53.7"/>
	<polygon points="24.3,43.2 13.8,53.6 7.1,46.8 7.1,60.3 7.1,60.4 7.1,60.4 7.1,64.9 24.8,64.9 18.3,58.2 28.8,47.7"/>
</g>
<polygon fill="currentColor" points="10.7,28.8 28.8,28.8 28.8,24.3 28.8,24.3 28.8,24.3 28.8,11.2 22.2,17.6 11.6,7.1 7.1,11.6 17.6,22.1 "/>
<polygon fill="currentColor" points="60.8,28.8 54.4,22.2 64.9,11.6 60.4,7.1 49.9,17.6 43.2,10.7 43.2,28.8 "/>
<polygon fill="currentColor" points="60.4,64.9 64.9,60.4 54.4,49.9 61.3,43.2 43.2,43.2 43.2,60.8 49.8,54.4 "/>
<polygon fill="currentColor" points="11.6,64.9 22.1,54.4 28.8,61.3 28.8,47.7 28.8,47.7 28.8,47.7 28.8,43.2 11.1,43.2 17.6,49.8 7.1,60.4 "/>
</svg>
