<?xml version="1.0" encoding="utf-8"?>
<!-- Generator: Adobe Illustrator 18.0.0, SVG Export Plug-In . SVG Version: 6.00 Build 0)  -->
<!DOCTYPE svg PUBLIC "-//W3C//DTD SVG 1.1//EN" "http://www.w3.org/Graphics/SVG/1.1/DTD/svg11.dtd">
<svg version="1.1" id="Calque_1" xmlns="http://www.w3.org/2000/svg" xmlns:xlink="http://www.w3.org/1999/xlink" x="0px" y="0px"
	 viewBox="0 0 72 72" enable-background="new 0 0 72 72" xml:space="preserve">
<g>
	<path d="M9.4,14.7v16.3h17.2V14.7H36v42.5h-9.4V38.9H9.4v18.3H0V14.7H9.4z"/>
	<path d="M43.1,25c0.6-2,1.6-3.8,2.9-5.4c1.3-1.5,2.9-2.7,4.8-3.6c1.9-0.9,4.1-1.3,6.6-1.3c1.9,0,3.7,0.3,5.4,0.9
		c1.7,0.6,3.2,1.5,4.6,2.6c1.3,1.1,2.4,2.5,3.1,4.1c0.8,1.6,1.2,3.5,1.2,5.5c0,2.1-0.3,3.9-1,5.4c-0.7,1.5-1.6,2.8-2.7,4
		c-1.1,1.2-2.4,2.2-3.8,3.2c-1.4,1-2.8,1.9-4.3,2.8c-1.4,0.9-2.8,1.9-4.2,3s-2.5,2.3-3.6,3.8h19.7v7.3H41.3c0-2.4,0.3-4.5,1-6.3
		c0.7-1.8,1.6-3.4,2.8-4.8c1.2-1.4,2.6-2.7,4.2-3.9c1.6-1.2,3.3-2.4,5.1-3.6c0.9-0.6,1.9-1.3,2.9-1.9c1-0.7,2-1.4,2.8-2.2
		c0.9-0.8,1.6-1.7,2.1-2.7c0.6-1,0.9-2.1,0.9-3.4c0-2-0.6-3.6-1.8-4.7C60.3,22.6,58.8,22,57,22c-1.2,0-2.3,0.3-3.1,0.9
		c-0.9,0.6-1.5,1.3-2.1,2.3c-0.5,0.9-0.9,2-1.1,3.1c-0.2,1.1-0.3,2.3-0.3,3.4h-8.1C42.2,29.2,42.5,27,43.1,25z"/>
</g>
</svg>
