<?xml version="1.0" encoding="utf-8"?>
<!-- Generator: Adobe Illustrator 18.0.0, SVG Export Plug-In . SVG Version: 6.00 Build 0)  -->
<!DOCTYPE svg PUBLIC "-//W3C//DTD SVG 1.1//EN" "http://www.w3.org/Graphics/SVG/1.1/DTD/svg11.dtd">
<svg version="1.1" id="Calque_1" xmlns="http://www.w3.org/2000/svg" xmlns:xlink="http://www.w3.org/1999/xlink" x="0px" y="0px"
	 viewBox="0 0 72 72" enable-background="new 0 0 72 72" xml:space="preserve">
<g>
	<path d="M9.3,14.4v16.3h17.2V14.4h9.3v42.5h-9.3V38.5H9.3v18.3H0V14.4H9.3z"/>
	<path d="M56.5,32c1-0.1,2-0.3,2.9-0.7c0.9-0.4,1.6-0.9,2.2-1.6c0.6-0.7,0.9-1.7,0.9-2.9c0-1.8-0.6-3.2-1.8-4.1
		c-1.2-1-2.6-1.4-4.1-1.4c-2.1,0-3.8,0.7-4.8,2.1c-1.1,1.4-1.6,3.2-1.6,5.3h-8c0.1-2.1,0.5-4.1,1.2-5.9c0.7-1.8,1.7-3.3,2.9-4.6
		c1.2-1.3,2.7-2.3,4.5-2.9c1.7-0.7,3.7-1,5.8-1c1.7,0,3.3,0.2,5,0.7c1.7,0.5,3.2,1.2,4.5,2.2c1.3,1,2.4,2.2,3.2,3.6
		c0.8,1.4,1.3,3.1,1.3,4.9c0,2-0.5,3.8-1.5,5.4c-1,1.5-2.4,2.6-4.4,3.2v0.1c2.3,0.5,4.1,1.6,5.4,3.3c1.3,1.7,2,3.7,2,6.1
		c0,2.2-0.4,4.1-1.3,5.8c-0.9,1.7-2,3.1-3.4,4.3c-1.4,1.2-3.1,2-4.9,2.6c-1.9,0.6-3.8,0.9-5.8,0.9c-2.3,0-4.5-0.3-6.4-1
		c-1.9-0.7-3.6-1.7-4.9-2.9c-1.4-1.3-2.4-2.9-3.1-4.7c-0.7-1.9-1.1-4-1-6.4h8c0,1.1,0.2,2.2,0.5,3.2c0.3,1,0.8,1.9,1.4,2.6
		c0.6,0.7,1.3,1.3,2.2,1.8c0.9,0.4,2,0.7,3.2,0.7c1.9,0,3.5-0.6,4.8-1.8c1.3-1.2,2-2.8,2-4.8c0-1.6-0.3-2.8-0.9-3.6
		c-0.6-0.8-1.4-1.4-2.3-1.8c-1-0.4-2-0.6-3.1-0.7C55.7,38,54.6,38,53.6,38v-6C54.5,32.1,55.4,32.1,56.5,32z"/>
</g>
</svg>
