<!--?xml version="1.0" encoding="UTF-8" standalone="no"?-->
<svg viewBox="0 0 17 16" version="1.1" xmlns="http://www.w3.org/2000/svg" xmlns:xlink="http://www.w3.org/1999/xlink" class="si-glyph si-glyph-document-music">
    <!-- Generator: Sketch 3.0.3 (7891) - http://www.bohemiancoding.com/sketch -->
    <title>747</title>
    
    <defs></defs>
    <g stroke="none" stroke-width="1" fill="none" fill-rule="evenodd">
        <g transform="translate(3.000000, 0.000000)" fill="#434343">
            <path d="M7.016,3.984 L11.997,3.984 L7.016,0.016 L7.016,3.984 Z" class="si-glyph-fill"></path>
            <path d="M5.969,5.016 L5.969,0.011 L0.034,0.011 L0.034,15.969 L11.976,15.969 L11.976,5.016 L5.969,5.016 L5.969,5.016 Z M9.027,11.658 C8.982,12.037 8.461,12.593 7.957,12.801 C7.301,13.072 6.617,12.921 6.429,12.465 C6.241,12.009 6.619,11.419 7.276,11.149 C7.507,11.053 7.756,10.999 7.985,10.991 L7.985,8.363 L5.012,9.062 L5.016,12.61 C4.971,12.989 4.367,13.63 3.863,13.838 C3.208,14.109 2.524,13.958 2.334,13.502 C2.146,13.046 2.526,12.456 3.182,12.186 C3.462,12.07 3.71,11.996 3.97,12.02 L3.97,8.142 L9.032,6.954 L9.027,11.658 L9.027,11.658 Z" class="si-glyph-fill"></path>
        </g>
    </g>
</svg>