<?xml version="1.0" encoding="utf-8"?>
<!-- Generator: Adobe Illustrator 18.0.0, SVG Export Plug-In . SVG Version: 6.00 Build 0)  -->
<!DOCTYPE svg PUBLIC "-//W3C//DTD SVG 1.1//EN" "http://www.w3.org/Graphics/SVG/1.1/DTD/svg11.dtd">
<svg version="1.1" id="Calque_1" xmlns="http://www.w3.org/2000/svg" xmlns:xlink="http://www.w3.org/1999/xlink" x="0px" y="0px"
	 viewBox="0 0 72 72" enable-background="new 0 0 72 72" xml:space="preserve">
<path d="M52.9,46.2c1.3,1.6,1.9,3.5,1.9,5.7c0,2.2-0.7,4.1-2,5.9c-1.3,1.8-3.3,3.2-6,4.3c-2.7,1-5.8,1.6-9.3,1.6
	c-4,0-7.5-0.7-10.7-2.1c-3.2-1.4-5.5-3.2-7-5.4c-1.5-2.2-2.5-5.1-2.9-8.6l-8.7,0.8c0.1,4.6,1.4,8.8,3.8,12.5c2.4,3.7,5.8,6.4,10,8.3
	c4.3,1.8,9.5,2.7,15.8,2.7c5,0,9.4-0.9,13.4-2.7c4-1.8,7-4.4,9.1-7.6c2.1-3.3,3.2-6.8,3.2-10.5c0-2.6-0.5-5-1.4-7.2H50.5
	C51.5,44.6,52.3,45.4,52.9,46.2z"/>
<path d="M22.6,24.8c-1.8-1.6-2.7-3.7-2.7-6.2c0-2.9,1.3-5.3,3.8-7.4c2.5-2,6.6-3.1,12.2-3.1c5.3,0,9.4,1.1,12.1,3.4
	c2.7,2.2,4.3,5.6,4.8,10l8.8-0.7c-0.2-4.1-1.3-7.7-3.4-11c-2.1-3.2-5.1-5.7-9.1-7.3C45.2,0.8,40.6,0,35.5,0c-4.7,0-8.9,0.8-12.8,2.4
	C18.9,4,16,6.3,14,9.3c-2,3.1-3,6.3-3,9.8c0,2.8,0.6,5.5,1.9,7.8h13.8C24.8,26.2,23.4,25.5,22.6,24.8z"/>
<rect x="0" y="31" width="72" height="9.5"/>
</svg>
