<?xml version="1.0" encoding="utf-8"?>
<!-- Generator: Adobe Illustrator 18.0.0, SVG Export Plug-In . SVG Version: 6.00 Build 0)  -->
<!DOCTYPE svg PUBLIC "-//W3C//DTD SVG 1.1//EN" "http://www.w3.org/Graphics/SVG/1.1/DTD/svg11.dtd">
<svg version="1.1" id="Calque_1" xmlns="http://www.w3.org/2000/svg" xmlns:xlink="http://www.w3.org/1999/xlink" x="0px" y="0px"
	 viewBox="0 0 72 72" enable-background="new 0 0 72 72" xml:space="preserve">
<g>
	<path d="M10,72V0h27c5.5,0,9.9,0.7,13.2,2.2c3.3,1.5,5.9,3.7,7.8,6.7c1.9,3,2.8,6.2,2.8,9.5c0,3.1-0.8,6-2.5,8.7
		c-1.7,2.7-4.2,4.9-7.6,6.6c4.4,1.3,7.7,3.5,10,6.5c2.3,3.1,3.5,6.7,3.5,10.9c0,3.4-0.7,6.5-2.1,9.4c-1.4,2.9-3.2,5.1-5.3,6.7
		c-2.1,1.6-4.7,2.8-7.9,3.6c-3.2,0.8-7,1.2-11.6,1.2H10z M19.5,30.3h15.6c4.2,0,7.3-0.3,9.1-0.8c2.4-0.7,4.2-1.9,5.5-3.6
		c1.2-1.7,1.8-3.8,1.8-6.3c0-2.4-0.6-4.5-1.7-6.3s-2.8-3.1-4.9-3.7c-2.1-0.7-5.8-1-11-1H19.5V30.3z M19.5,63.5h17.9
		c3.1,0,5.2-0.1,6.5-0.3c2.2-0.4,4-1,5.5-2c1.5-0.9,2.7-2.3,3.6-4c0.9-1.8,1.4-3.8,1.4-6.1c0-2.7-0.7-5-2.1-7
		c-1.4-2-3.3-3.4-5.7-4.2c-2.4-0.8-6-1.2-10.5-1.2H19.5V63.5z"/>
</g>
</svg>
