<svg xmlns="http://www.w3.org/2000/svg" width="928.571" height="1000"><path d="M285.696 767.872V660.736q0-7.812-5.022-12.834t-12.834-5.022H89.28q-7.812 0-12.834 5.022t-5.022 12.834v107.136q0 7.812 5.022 12.834t12.834 5.022h178.56q7.812 0 12.834-5.022t5.022-12.834zm0-214.272V446.464q0-7.812-5.022-12.834t-12.834-5.022H89.28q-7.812 0-12.834 5.022t-5.022 12.834V553.6q0 7.812 5.022 12.834t12.834 5.022h178.56q7.812 0 12.834-5.022t5.022-12.834zm285.696 214.272V660.736q0-7.812-5.022-12.834t-12.834-5.022h-178.56q-7.812 0-12.834 5.022t-5.022 12.834v107.136q0 7.812 5.022 12.834t12.834 5.022h178.56q7.812 0 12.834-5.022t5.022-12.834zM285.696 339.328V232.192q0-7.812-5.022-12.834t-12.834-5.022H89.28q-7.812 0-12.834 5.022t-5.022 12.834v107.136q0 7.812 5.022 12.834t12.834 5.022h178.56q7.812 0 12.834-5.022t5.022-12.834zM571.392 553.6V446.464q0-7.812-5.022-12.834t-12.834-5.022h-178.56q-7.812 0-12.834 5.022t-5.022 12.834V553.6q0 7.812 5.022 12.834t12.834 5.022h178.56q7.812 0 12.834-5.022t5.022-12.834zm285.696 214.272V660.736q0-7.812-5.022-12.834t-12.834-5.022h-178.56q-7.812 0-12.834 5.022t-5.022 12.834v107.136q0 7.812 5.022 12.834t12.834 5.022h178.56q7.812 0 12.834-5.022t5.022-12.834zM571.392 339.328V232.192q0-7.812-5.022-12.834t-12.834-5.022h-178.56q-7.812 0-12.834 5.022t-5.022 12.834v107.136q0 7.812 5.022 12.834t12.834 5.022h178.56q7.812 0 12.834-5.022t5.022-12.834zM857.088 553.6V446.464q0-7.812-5.022-12.834t-12.834-5.022h-178.56q-7.812 0-12.834 5.022t-5.022 12.834V553.6q0 7.812 5.022 12.834t12.834 5.022h178.56q7.812 0 12.834-5.022t5.022-12.834zm0-214.272V232.192q0-7.812-5.022-12.834t-12.834-5.022h-178.56q-7.812 0-12.834 5.022t-5.022 12.834v107.136q0 7.812 5.022 12.834t12.834 5.022h178.56q7.812 0 12.834-5.022t5.022-12.834zm71.424-178.56v607.104q0 36.828-26.226 63.054t-63.054 26.226H89.28q-36.828 0-63.054-26.226T0 767.872V160.768q0-36.828 26.226-63.054T89.28 71.488h749.952q36.828 0 63.054 26.226t26.226 63.054z"/></svg>