<?xml version="1.0" encoding="UTF-8"?>
<svg xmlns="http://www.w3.org/2000/svg" height="1000" width="928.571"><path d="M285.696 767.872v-107.136q0 -7.812 -5.022 -12.834t-12.834 -5.022h-178.56q-7.812 0 -12.834 5.022t-5.022 12.834v107.136q0 7.812 5.022 12.834t12.834 5.022h178.56q7.812 0 12.834 -5.022t5.022 -12.834zm0 -214.272v-107.136q0 -7.812 -5.022 -12.834t-12.834 -5.022h-178.56q-7.812 0 -12.834 5.022t-5.022 12.834v107.136q0 7.812 5.022 12.834t12.834 5.022h178.56q7.812 0 12.834 -5.022t5.022 -12.834zm285.696 214.272v-107.136q0 -7.812 -5.022 -12.834t-12.834 -5.022h-178.56q-7.812 0 -12.834 5.022t-5.022 12.834v107.136q0 7.812 5.022 12.834t12.834 5.022h178.56q7.812 0 12.834 -5.022t5.022 -12.834zm-285.696 -428.544v-107.136q0 -7.812 -5.022 -12.834t-12.834 -5.022h-178.56q-7.812 0 -12.834 5.022t-5.022 12.834v107.136q0 7.812 5.022 12.834t12.834 5.022h178.56q7.812 0 12.834 -5.022t5.022 -12.834zm285.696 214.272v-107.136q0 -7.812 -5.022 -12.834t-12.834 -5.022h-178.56q-7.812 0 -12.834 5.022t-5.022 12.834v107.136q0 7.812 5.022 12.834t12.834 5.022h178.56q7.812 0 12.834 -5.022t5.022 -12.834zm285.696 214.272v-107.136q0 -7.812 -5.022 -12.834t-12.834 -5.022h-178.56q-7.812 0 -12.834 5.022t-5.022 12.834v107.136q0 7.812 5.022 12.834t12.834 5.022h178.56q7.812 0 12.834 -5.022t5.022 -12.834zm-285.696 -428.544v-107.136q0 -7.812 -5.022 -12.834t-12.834 -5.022h-178.56q-7.812 0 -12.834 5.022t-5.022 12.834v107.136q0 7.812 5.022 12.834t12.834 5.022h178.56q7.812 0 12.834 -5.022t5.022 -12.834zm285.696 214.272v-107.136q0 -7.812 -5.022 -12.834t-12.834 -5.022h-178.56q-7.812 0 -12.834 5.022t-5.022 12.834v107.136q0 7.812 5.022 12.834t12.834 5.022h178.56q7.812 0 12.834 -5.022t5.022 -12.834zm0 -214.272v-107.136q0 -7.812 -5.022 -12.834t-12.834 -5.022h-178.56q-7.812 0 -12.834 5.022t-5.022 12.834v107.136q0 7.812 5.022 12.834t12.834 5.022h178.56q7.812 0 12.834 -5.022t5.022 -12.834zm71.424 -178.56v607.104q0 36.828 -26.226 63.054t-63.054 26.226h-749.952q-36.828 0 -63.054 -26.226t-26.226 -63.054v-607.104q0 -36.828 26.226 -63.054t63.054 -26.226h749.952q36.828 0 63.054 26.226t26.226 63.054z" fill="#000000"/></svg>
