<?xml version="1.0" encoding="utf-8"?>
<!-- Generator: Adobe Illustrator 18.0.0, SVG Export Plug-In . SVG Version: 6.00 Build 0)  -->
<!DOCTYPE svg PUBLIC "-//W3C//DTD SVG 1.1//EN" "http://www.w3.org/Graphics/SVG/1.1/DTD/svg11.dtd">
<svg version="1.1" id="Calque_1" xmlns="http://www.w3.org/2000/svg" xmlns:xlink="http://www.w3.org/1999/xlink" x="0px" y="0px"
	 viewBox="0 0 72 72" enable-background="new 0 0 72 72" xml:space="preserve">
<rect x="9.7" y="62.5" width="52.5" height="9.5"/>
<g>
	<path d="M17.3,9.3h9.8v28.2c0,3.2,0.4,5.5,1.1,6.9c1.2,2.6,3.7,3.9,7.6,3.9c3.9,0,6.4-1.3,7.6-3.9c0.7-1.5,1.1-3.8,1.1-6.9V9.3h9.8
		v28.2c0,4.9-0.8,8.7-2.3,11.4c-2.8,5-8.2,7.5-16.2,7.5S22.4,54,19.6,49c-1.5-2.7-2.3-6.5-2.3-11.4V9.3z"/>
</g>
</svg>
