<?xml version="1.0" encoding="utf-8"?>
<!-- Generator: Adobe Illustrator 18.0.0, SVG Export Plug-In . SVG Version: 6.00 Build 0)  -->
<!DOCTYPE svg PUBLIC "-//W3C//DTD SVG 1.1//EN" "http://www.w3.org/Graphics/SVG/1.1/DTD/svg11.dtd">
<svg version="1.1" id="Calque_1" xmlns="http://www.w3.org/2000/svg" xmlns:xlink="http://www.w3.org/1999/xlink" x="0px" y="0px"
	 viewBox="0 0 210.3 195" enable-background="new 0 0 210.3 195" xml:space="preserve">
	<style>
		@keyframes slideCloudTop {
			0%,
			100% {
				transform: translateX(0);
			}
			50% {
				transform: translateX(20px);
			}
		}
		@keyframes slideCloudBottom {
			0%,
			100% {
				transform: translateX(0);
			}
			50% {
				transform: translateX(-10px);
			}
		}
		.cloud-top {
			animation: slideCloudTop 20s linear infinite;
		}
		.cloud-bottom {
			animation: slideCloudBottom 13s linear infinite;
		}
	</style>
<g>
	<rect x="105.6" y="163.8" fill="#F49037" width="8.6" height="23.7"/>
	<path fill="#F49037" d="M176.6,156.6L176.6,156.6c-2.6,2.2-6.6,1.8-8.7-0.8L47.9,10.5c-2.2-2.6-1.8-6.6,0.8-8.7l0,0
		c2.6-2.2,6.6-1.8,8.7,0.8l120,145.3C179.6,150.5,179.2,154.4,176.6,156.6z"/>
	<path opacity="5.000000e-02" enable-background="new    " d="M153.8,195l16.6-4.7c1.7-0.5,1.6-2.9-0.2-3.3l-33.9-4.1l1.6,5.4
		C137.9,188.3,150.1,190.9,153.8,195z"/>
	
		<linearGradient id="SVGID_1_" gradientUnits="userSpaceOnUse" x1="206.2278" y1="-151.4528" x2="786.6278" y2="-151.4528" gradientTransform="matrix(0.2283 0 0 -0.2283 -1.8007 48.2202)">
		<stop  offset="0" style="stop-color:#FBA23B"/>
		<stop  offset="1" style="stop-color:#FFC93E"/>
	</linearGradient>
	<circle fill="url(#SVGID_1_)" cx="111.5" cy="82.8" r="66.2"/>
	<g>
		<g>
			<path fill="#F49037" d="M162.1,139.5c-8.7,7.2-19.1,12.5-30.8,15.3c-10.2,2.4-20.4,2.7-30.1,1c-14.6-2.4-28.1-9.1-38.8-19
				c-5.4-5-10.1-10.7-13.9-17.1c-3.8-6.4-6.7-13.5-8.5-21.2c-1.7-7.2-2.4-14.5-2-21.5c0.5-10.6,3.3-20.8,8-30.1s11.2-17.5,19.2-24.2
				l-5.8-7c-12,10-21,23.1-26,37.8c-5,14.7-6.1,31-2.2,47.1c2.7,11.4,7.6,21.7,14.2,30.6c9.8,13.4,23.3,23.5,38.6,29.2
				c7.6,2.9,15.8,4.7,24.1,5.3s16.9-0.1,25.5-2.1c13.1-3.1,24.8-9.1,34.5-17.2L162.1,139.5L162.1,139.5z"/>
		</g>
	</g>
	<path opacity="0.8" fill="#E5892E" enable-background="new    " d="M51.4,84.8c0-36.6,29.7-66.2,66.2-66.2c6.2,0,12.2,0.8,17.9,2.4
		c-7.5-2.9-15.6-4.5-24-4.5c-36.6,0-66.2,29.7-66.2,66.2c0,30.4,20.5,56,48.4,63.8C69,137,51.4,113,51.4,84.8z"/>
	<g>
		<path fill="#FFFAEE" d="M149.1,28.2l-4.1,1.5c-0.1,0-0.2,0-0.3,0l-6.6-0.9c-0.2,0-0.4,0-0.6,0.2l-3.2,3.4
			c-0.1,0.1-0.2,0.2-0.3,0.2l-15.2,3.6c0,0,0,0,0,0l-6,2.4c-0.2,0.1-0.3,0-0.4-0.1l-1.1-1.6c-0.2-0.3,0-0.6,0.3-0.6l2.7,0.4
			c0.1,0,0.2,0,0.3-0.1l1.9-1.3c0.3-0.2,0.2-0.5-0.1-0.6l-11.7-3.8c-0.1,0-0.1,0-0.2,0l-8.4,1.8c-0.1,0-0.1,0-0.2,0.1l-5.2,5.8
			c0,0-0.1,0.1-0.1,0.1L86,41.3c-0.1,0.1-0.2,0.2-0.2,0.4l0.8,4.1c0,0.2,0.3,0.3,0.5,0.3l3.9-1.2c0.2,0,0.3,0,0.4,0.2l2.3,3.6
			c0.1,0.1,0.3,0.2,0.4,0.1l2.2-0.8c0.1,0,0.1-0.1,0.2-0.2l2.3-3.7c0.1-0.1,0.1-0.3,0-0.4l-1.4-2.5c-0.1-0.1-0.1-0.3,0.1-0.4
			l4.3-4.3c0.1-0.1,0.3-0.1,0.5,0l0.8,0.6c0.2,0.1,0.2,0.4,0,0.5l-2.3,2.2c-0.1,0.1-0.1,0.2-0.1,0.3l0.6,3.5c0,0.1,0,0.1,0.1,0.2
			l1.8,2.3c0.2,0.3-0.1,0.7-0.4,0.6c-0.2-0.1-0.4,0-0.5,0.2l-0.9,2.4c0,0.1-0.1,0.2-0.2,0.2l-3.3,1.3c0,0-0.1,0-0.1,0l-5,0.4
			c-0.2,0-0.3-0.1-0.4-0.2L91,47.2c-0.1-0.2-0.2-0.3-0.4-0.2l-1.4,0.3c-0.2,0-0.3,0.2-0.3,0.4l0.7,3.7c0,0.2-0.1,0.4-0.3,0.4
			L86.1,52c-0.1,0-0.2,0-0.3,0.1l-2.5,3.1l-2.7,2.1c-0.1,0.1-0.3,0.1-0.5,0l-0.3-0.2c-0.3-0.2-0.6,0-0.6,0.3c0,0.2-0.2,0.4-0.4,0.4
			h-2.6c-0.2,0-0.3,0.1-0.4,0.3l-0.3,1c0,0.2,0,0.4,0.3,0.5l3.4,1.3c0.2,0.1,0.3,0.3,0.3,0.4l-0.5,3.3c0,0.2-0.3,0.4-0.5,0.3
			l-5.5-1.1c-0.1,0-0.2,0-0.3,0.1l-2.2,1.6c-0.1,0.1-0.2,0.2-0.2,0.4l0.5,4.6c0,0,0,0,0,0l0.6,2.6c0,0.2,0.2,0.3,0.3,0.3l2.9,0.5
			c0,0,0,0,0,0l2.7,0.1c0.1,0,0.1,0,0.2,0l2.1-0.9c0.1,0,0.2-0.1,0.2-0.2l0.9-2.1l0.9-2.1c0-0.1,0.1-0.1,0.1-0.2l2-1.3l1-1.5
			c0,0,1.5-0.8,2.1-0.8c0.5,0,2.6-0.5,2.6-0.5l1.4-0.5l4,3.6l3.1,2.1v1.1l-3.5,1l2.8,2.5l2.2-3.2l-0.1-1.8l1.1,0.1l0.3-1.1L96,65.9
			l-2.2-3.7l2.9,0.5l4.7,4.3l3.5,6.4l1.3,1.3l1.4-2.8l-1-2.4l1.5-1.4l1,1.8l2.5,3.6l6.5,0.8l2.1-0.4l0.1,1.8l-1.3,5.4l-4.2-1.5
			l-2.1,1.9l-7.2-2.9l-2.5,0.7l0.4,2.4l-6.4-2.5l-4.7-2.4l0.1-4.2l-7.5,0.7L79,76.2l-4.7-1.1l-2.2,2.4l-2.2,5.1l-3.5,2.9l-5.1,7.1
			l-0.1,9.4l4.4,9.3l7.5,4.9l7.9-0.8l4.6-1.5l2.6,2.8l2.2-0.3l1.9,1.4l-1,6l5,9.5c0.5,0.9,0.6,1.9,0.3,2.8l-2.1,7.7
			c-0.2,0.7-0.2,1.4,0,2.1l0.3,1.1c5.3,1.4,10.8,2.1,16.6,2.1c3.7,0,7.4-0.3,10.9-0.9c0.2-0.5,0.5-0.9,0.9-1.3l3.7-3.4
			c1.1-1,1.5-2.4,1.1-3.8l-2.1-8.1c-0.3-1-0.1-2.1,0.4-3l3.2-5.3l8.9-7.1l2.6-9.2c0.1-0.5-0.3-1-0.9-0.8l-6.9,2.4
			c-0.3,0.1-0.6,0-0.8-0.3l-2.8-3.9l-6.4-9l-4.2-9.6l1.4-0.8l6.7,9.6l4.3,10.5l12-4.8c0.1,0,0.2-0.1,0.3-0.3l4.9-7.6
			c0.2-0.3,0.1-0.7-0.2-0.9l-2.5-1.7c-0.1-0.1-0.2-0.2-0.3-0.3l-0.3-0.9c-0.2-0.5-0.9-0.6-1.2-0.2l-1.1,1.7
			c-0.1,0.2-0.3,0.3-0.5,0.3h-2.8c-0.3,0-0.5-0.1-0.6-0.4l-3.1-6.4c-0.3-0.6,0.3-1.2,0.9-0.9l0.2,0.1c0,0,0.1,0,0.1,0L143,87
			c0.3,0.2,0.6,0.2,0.8,0l1-0.8c0.3-0.2,0.7-0.2,0.9,0.1l1.1,1.3c0.1,0.2,0.3,0.3,0.5,0.3l9.8,0.5c0.2,0,0.4,0.1,0.5,0.3l4.7,5.7
			c0.2,0.2,0.4,0.3,0.6,0.2l0.5-0.1c0.3-0.1,0.7,0.2,0.8,0.5l1.9,7.4c0,0,0,0.1,0.1,0.2l4.7,8.4c0.1,0.2,0.3,0.3,0.4,0.4
			c0.9-1.9,1.8-3.9,2.5-6l-0.1-3.3c0-0.3,0.1-0.5,0.3-0.6l1.3-0.7c1.6-5.7,2.4-11.7,2.4-17.9C177.8,60.1,166.4,40.2,149.1,28.2z"/>
	</g>
	<path opacity="0.6" fill="#E2A730" enable-background="new    " d="M155.5,123.8c-25.9,25.9-67.8,25.9-93.7,0
		c-4.4-4.4-8-9.2-10.9-14.3c3.2,7.3,7.8,14.2,13.8,20.2c25.9,25.9,67.8,25.9,93.7,0c21.5-21.5,25.1-54.1,10.9-79.4
		C180,74.6,175.4,104,155.5,123.8z"/>
	<path fill="#DB781F" d="M149.7,17.8c-5.2,0-9.4,4.2-9.4,9.4c0,6.9,9.4,14.5,9.4,14.5S159,35,159,27.1C159,22,154.8,17.8,149.7,17.8
		z M149.7,32.1c-2.7,0-5-2.2-5-5s2.2-5,5-5c2.7,0,5,2.2,5,5S152.4,32.1,149.7,32.1z"/>
	<path fill="#DB781F" d="M157,49c-5.2,0-9.4,4.2-9.4,9.4c0,6.9,9.4,14.5,9.4,14.5s9.4-6.6,9.4-14.5C166.4,53.2,162.2,49,157,49z
		 M157,63.3c-2.7,0-5-2.2-5-5c0-2.7,2.2-5,5-5s5,2.2,5,5C162,61.1,159.8,63.3,157,63.3z"/>
	<path fill="#DB781F" d="M81.6,36.9c-5.2,0-9.4,4.2-9.4,9.4c0,6.9,9.4,14.5,9.4,14.5s9.4-6.6,9.4-14.5
		C90.9,41.1,86.7,36.9,81.6,36.9z M81.6,51.2c-2.7,0-5-2.2-5-5c0-2.7,2.2-5,5-5c2.7,0,5,2.2,5,5C86.5,49,84.3,51.2,81.6,51.2z"/>
	<path fill="#F49037" d="M110.2,181.4L110.2,181.4c-0.1,0-0.3,0-0.4,0s-0.3,0-0.4,0l0,0c-43.9,0.1-41.5,9-41.5,9l0,0
		c0,2.6,2.1,4.6,4.6,4.6h37.2h0.2h37.2c2.6,0,4.6-2.1,4.6-4.6l0,0C151.8,190.4,154.2,181.5,110.2,181.4z"/>
	<path fill="#C6681A" d="M153.2,195H66.5c-1.5,0-2.7-1.2-2.7-2.7l0,0c0-1.5,1.2-2.7,2.7-2.7h86.7c1.5,0,2.7,1.2,2.7,2.7l0,0
		C155.9,193.8,154.7,195,153.2,195z"/>
	<path fill="#C96E23" d="M157.4,143.1l5.8,7.1c0,0-3.4,2.6-6.9,4.5C157.2,144.5,157.4,143.1,157.4,143.1z"/>
	<path fill="#C96E23" d="M105.5,165.7c0,0,4.4,0.5,8.7,0.2c0,2.2,0,2.2,0,2.2s-2.1,0.5-8.6-0.1C105.6,166.9,105.5,165.7,105.5,165.7
		z"/>
</g>
<g class="cloud-top">
	<path fill="#FFFFFF" d="M79.1,24H19c-2.5,0-4.8,1.8-5,4.3c-0.3,2.9,2,5.3,4.8,5.3h10c2.4,0,4.4,2,4.4,4.4v0c0,2.4-2,4.4-4.4,4.4
		H7.3c-2.7,0-4.8,2.2-4.8,4.8v0c0,2.7,2.2,4.8,4.8,4.8h61.5c2.7,0,4.8-2.2,4.8-4.8v0c0-2.7-2.2-4.8-4.8-4.8h-8.7
		c-2.4,0-4.4-2-4.4-4.4v0c0-2.4,2-4.4,4.4-4.4h18.8c2.5,0,4.8-1.8,5-4.3C84.2,26.4,81.9,24,79.1,24z"/>
	<path fill="#FFEBCC" d="M69.9,43.3c0,2.7-2.2,4.8-4.8,4.8H2.6c0.4,2.3,2.4,4.1,4.8,4.1h61.5c2.7,0,4.8-2.2,4.8-4.8v0
		c0-2.3-1.6-4.2-3.8-4.7C69.8,42.8,69.9,43,69.9,43.3L69.9,43.3z"/>
	<path fill="none" d="M56.9,35L56.9,35C56.9,34.9,56.9,35,56.9,35z"/>
	<path fill="#FFEBCC" d="M63.1,30.7h13.5c2.2,0,4.3-1.4,4.9-3.6c0.2-0.8,0.2-1.7,0-2.4c0,0,0,0,0,0c1.6,1,2.6,2.8,2.3,4.8
		c-0.3,2.4-2.6,4.1-5,4.1H60.1c-1.2,0-2.3,0.5-3.1,1.3l2.9-2.9C60.7,31.2,61.9,30.7,63.1,30.7z"/>
</g>
<g class="cloud-bottom">
	<path fill="#FFFFFF" d="M204.9,112.7h-60c-2.5,0-4.8,1.8-5,4.3c-0.3,2.9,2,5.3,4.8,5.3h10c2.4,0,4.4,2,4.4,4.4v0
		c0,2.4-2,4.4-4.4,4.4h-21.6c-2.7,0-4.8,2.2-4.8,4.8l0,0c0,2.7,2.2,4.8,4.8,4.8h61.5c2.7,0,4.8-2.2,4.8-4.8v0c0-2.7-2.2-4.8-4.8-4.8
		h-8.7c-2.4,0-4.4-2-4.4-4.4v0c0-2.4,2-4.4,4.4-4.4h18.8c2.5,0,4.8-1.8,5-4.3C210,115.2,207.7,112.7,204.9,112.7z"/>
	<path fill="#FFEBCC" d="M195.7,132c0,2.7-2.2,4.8-4.8,4.8h-62.5c0.4,2.3,2.4,4.1,4.8,4.1h61.5c2.7,0,4.8-2.2,4.8-4.8v0
		c0-2.3-1.6-4.2-3.8-4.7C195.7,131.6,195.7,131.8,195.7,132L195.7,132z"/>
	<path fill="none" d="M182.8,123.7L182.8,123.7C182.8,123.7,182.8,123.7,182.8,123.7z"/>
	<path fill="#FFEBCC" d="M189,119.5h13.5c2.2,0,4.3-1.4,4.9-3.6c0.2-0.8,0.2-1.7,0-2.4c0,0,0,0,0,0c1.6,1,2.6,2.8,2.3,4.8
		c-0.3,2.4-2.6,4.1-5,4.1h-18.8c-1.2,0-2.3,0.5-3.1,1.3l2.9-2.9C186.5,119.9,187.7,119.5,189,119.5z"/>
</g>
</svg>
