<svg xmlns="http://www.w3.org/2000/svg" width="42.064" height="61.946" viewBox="0 0 42.064 61.946">
    <path d="M22.855 4.076c-.418.058-.763.358-.875.762l-.792 2.855-2.386-4.134c-.135-.234-.364-.408-.628-.475L6.37.033c-.51-.13-1.045.14-1.242.628l-3.64 9.004c-.117.293-.095.623.06.894L3.86 14.56l-2.543-.657c-.406-.104-.84.043-1.098.376-.26.332-.293.784-.085 1.144L6.68 26.758c.135.234.364.408.628.476s.552.028.79-.11l2.49-1.437-1.322 4.766c-.073.262-.037.547.098.78L13 37.532c.135.234.364.41.628.476l3.547.918-1.012 3.647c-.073.264-.037.548.098.783l5.005 8.667c.15.26.408.44.708.493l12.625 2.223 3.575 6.192c.567.982 1.837 1.31 2.836.733 1-.576 1.35-1.84.783-2.823l-3.937-6.817 4-14.408c.072-.262.036-.547-.1-.78l-3.08-5.334c-.134-.234-.363-.408-.627-.477l-3.076-.794.898-3.236c.073-.262.038-.547-.098-.78l-2.887-5c-.135-.236-.364-.41-.628-.477s-.553-.03-.79.11l-2.832 1.633 1.698-6.118c.073-.263.037-.547-.098-.782l-6.35-11.002c-.207-.36-.616-.556-1.033-.498zm-.017 46.49l-4.555-7.89 1.175-4.232c.073-.263.037-.547-.098-.78-.135-.236-.364-.41-.628-.478l-4.135-1.068-3.21-5.562 1.876-6.76c.112-.405-.03-.833-.363-1.084-.332-.25-.787-.278-1.153-.066l-3.77 2.177-4.793-8.3 2.543.658c.405.105.84-.043 1.097-.376.26-.333.292-.784.084-1.144L3.606 9.94l2.112-5.226 27.53 47.682-10.41-1.83zm5.38-34.314l-2.253 8.115c-.112.403.032.83.363 1.082.332.25.787.277 1.153.065l4.11-2.374 2.163 3.744-1.06 3.822c-.074.262-.04.547.097.782.135.234.364.408.628.476l3.662.945 2.655 4.598-3.33 11.997L9.552 2.995l7.653 1.978 3.413 5.91c.208.36.615.557 1.033.5.418-.058.764-.36.876-.763l.792-2.854 4.9 8.486z"
          fill="#ffb864"/>
</svg>