<?xml version="1.0" encoding="utf-8"?>
<!-- Generator: Adobe Illustrator 18.0.0, SVG Export Plug-In . SVG Version: 6.00 Build 0)  -->
<!DOCTYPE svg PUBLIC "-//W3C//DTD SVG 1.1//EN" "http://www.w3.org/Graphics/SVG/1.1/DTD/svg11.dtd">
<svg version="1.1" xmlns="http://www.w3.org/2000/svg" xmlns:xlink="http://www.w3.org/1999/xlink" x="0px" y="0px"
	 viewBox="0 0 1501.1 300" enable-background="new 0 0 1501.1 300" xml:space="preserve">
<g id="Calque_2" display="none">
	<rect x="-411" y="665" display="inline" fill="#F40B4E" stroke="#000000" stroke-miterlimit="10" width="2340" height="1292"/>
</g>
<g id="Calque_1">
	<g>
		<path fill="#FFCD9D" d="M1345.9,268c-29.2,0-46.4-10-55.9-25.9c-1.8-2.6-2.5-4.8-2.4-6.9h-0.1v24.5h0.1c0,1.9,0.8,4,2.4,6.4
			c9.5,15.9,26.7,25.9,55.9,25.9c42.4,0,59.4-23.5,59.4-58.9v-24C1405.3,244.5,1388.3,268,1345.9,268z"/>
		<path fill="#FFCD9D" d="M1374,197.3c-8.1,2.2-19.4,4.9-32.4,4.9c-38.6,0-56.2-20.3-56.2-54.3v24c0,34,17.5,54.3,56.2,54.3
			c12.3,0,23.1-2.4,31.1-4.5c0.9-3.2,1.3-6.8,1.3-10.8V197.3z"/>
		<path fill="#FFCD9D" d="M1371.6,92.2c-5.9-1.6-14-3-23-3c-21.6,0-31.9,9.2-31.9,29.2v24c0-20,10.3-29.2,31.9-29.2
			c8.9,0,17,1.4,23,3c1.9,0.8,2.4,1.4,2.4,3.2v-24C1374,93.6,1373.5,93,1371.6,92.2z"/>
		<path fill="#FFCD9D" d="M1199.3,268c-29.2,0-46.4-10-56.2-25.9c-1.7-2.6-2.4-4.9-2.2-7h0v24.6h0c0,1.9,0.7,4,2.2,6.4
			c9.7,15.9,27,25.9,56.2,25.9c42.4,0,59.4-23.5,59.4-58.9v-24C1258.7,244.5,1241.7,268,1199.3,268z"/>
		<path fill="#FFCD9D" d="M1227.4,198.1c-8.4,1.9-18.9,3.8-32.1,3.8c-38.6,0-56.4-20.2-56.4-54.3v24c0,34,17.8,54.3,56.4,54.3
			c12.4,0,22.8-1.7,30.9-3.4c1-3.4,1.2-7.3,1.2-11.6V198.1z"/>
		<path fill="#FFCD9D" d="M930.9,68.3v0.3C930.9,68.5,930.9,68.4,930.9,68.3L930.9,68.3z"/>
		<path fill="#FFCD9D" d="M1118.6,74.4l-36.2,122.9c-1.6,5.9-5.1,7.6-11.3,7.6h-9.2c-6.5,0-9.7-1.6-11.6-7.6l-19.7-69.1
			c-3.5-13-4.6-26.7-4.9-27.8h-1.4c-0.3,1.1-1.6,14.9-5.1,27.8l-19.7,69.1c-1.6,5.9-5.1,7.6-11.3,7.6h-8.9c-6.2,0-9.7-1.6-11.3-7.6
			L932,74.4c-0.7-2.3-1.1-4-1.1-5.4v23.5c-0.1,1.4,0.3,3.3,1.1,5.9L968,221.2c1.6,5.9,5.1,7.6,11.3,7.6h8.9c6.2,0,9.7-1.6,11.3-7.6
			l19.7-69.1c3.5-13,4.9-26.7,5.1-27.8h1.4c0.3,1.1,1.3,14.9,4.9,27.8l19.7,69.1c1.9,5.9,5.1,7.6,11.6,7.6h9.2
			c6.2,0,9.7-1.6,11.3-7.6l36.2-122.9c0.6-2.3,1-4.1,1-5.5h0V68.4h-0.1C1119.7,69.8,1119.3,71.8,1118.6,74.4z"/>
		<path fill="#FFCD9D" d="M189.5,56.7V39.8c0-2.9-0.3-5.1-0.9-6.9c-1.2,3.5-3.8,4.8-8.3,4.8h-46.4v30.6h46.4
			C187.1,68.4,189.5,65.3,189.5,56.7z"/>
		<path fill="#FFCD9D" d="M53.4,37.8c-4.7,0-7.2-1.4-8.3-4.8c-0.6,1.7-0.8,4-0.8,6.9v16.9c0,8.6,2.2,11.7,9.2,11.7h46.4V37.8H53.4z"
			/>
		<path fill="#FFCD9D" d="M124.7,204.5h-15.7c-6.8,0-9.2-2.4-9.2-9.2v24c0,6.8,2.4,9.2,9.2,9.2h15.7c6.7,0,9.2-2.4,9.2-9.2v-24
			C133.9,202.1,131.5,204.5,124.7,204.5z"/>
		<path fill="#FFCD9D" d="M206.3,204.5h-14.9c-6.2,0-8.4-2.2-8.4-8.4v24c0,6.2,2.2,8.4,8.4,8.4h14.9c6.2,0,8.1-2.2,8.1-8.4v-24
			C214.4,202.4,212.5,204.5,206.3,204.5z"/>
		<path fill="#FFCD9D" d="M252.4,76.3l-9.7-0.2c-10.5,0-18.6,1.3-25.7,3.5c-2.4,0.5-2.7,1.9-2.7,3.2v36.9c0-1.4,0.3-2.7,2.7-3.2
			c7-2.2,15.1-3.2,25.7-3.2h9.7c6.2,0,8.4-2.2,8.4-8.4V80.1c0-2.9-0.4-4.8-1.4-6.1C258.1,75.7,255.9,76.3,252.4,76.3z"/>
		<path fill="#FFCD9D" d="M386.6,199.1c-10.8,4.3-27.3,9.5-52.9,9.5c-38.6,0-56.4-20.2-56.4-54.3v24c0,34,17.8,54.3,56.4,54.3
			c25.7,0,42.1-5.1,52.9-9.5c8.6-3.5,10.5-6.8,10.5-15.1v-24C397.2,192.4,395.3,195.6,386.6,199.1z"/>
		<path fill="#FFCD9D" d="M563.5,89.3c-10.8,0-20,2.7-26.2,4.9c2.2,5.7,3,12.7,3,20.2v2.8c6-1.9,14-3.9,23.2-3.9
			c17.5,0,26.2,8.9,26.2,26.2v-24C589.7,98.2,581,89.3,563.5,89.3z"/>
		<path fill="#FFCD9D" d="M612.9,204.5H598c-6.2,0-8.4-2.2-8.4-8.4v24c0,6.2,2.2,8.4,8.4,8.4h14.8c6.2,0,8.1-2.2,8.1-8.4v-24
			C621,202.4,619.1,204.5,612.9,204.5z"/>
		<path fill="#FFCD9D" d="M482.5,89.3c-8.4,0-14.8,1.1-21.6,3.2c-1.9,0.8-2.2,1.9-2.2,3.2v24c0-1.4,0.3-2.4,2.2-3.2
			c6.8-2.2,13.2-3.2,21.6-3.2c17.3,0,26.5,8.9,26.5,26.2v-24C508.9,98.2,499.8,89.3,482.5,89.3z"/>
		<path fill="#FFCD9D" d="M450.6,204.5h-14.9c-6.2,0-8.4-2.2-8.4-8.4v24c0,6.2,2.2,8.4,8.4,8.4h14.9c6.2,0,8.1-2.2,8.1-8.4v-24
			C458.7,202.4,456.8,204.5,450.6,204.5z"/>
		<path fill="#FFCD9D" d="M531.9,204.5h-14.6c-6.2,0-8.4-2.2-8.4-8.4v24c0,6.2,2.2,8.4,8.4,8.4h14.6c6.2,0,8.4-2.2,8.4-8.4v-24
			C540.3,202.4,538.1,204.5,531.9,204.5z"/>
		<path fill="#FFCD9D" d="M709.5,208.6c-21.9,0-39.4-4.6-48.9-8.6c-8.6-4.1-10-6.2-10-14.9v24c0,8.6,1.4,10.8,10,14.9
			c9.5,4,27,8.6,48.9,8.6c41.3,0,61-20.2,61-57.2v-24C770.6,188.3,750.9,208.6,709.5,208.6z"/>
		<path fill="#FFCD9D" d="M709.8,89.3c-11.3,0-21.3,2.7-27.8,4.9v24c6.5-2.2,16.5-4.9,27.8-4.9c19.2,0,29.4,9.5,29.4,26.5v-24
			C739.2,98.7,729,89.3,709.8,89.3z"/>
		<path fill="#FFCD9D" d="M855.1,89c-19.7,0-30.8,9.2-30.8,25.7v24c0-16.5,11.1-25.7,30.8-25.7c20,0,31.1,9.2,31.1,25.7v-24
			C886.1,98.2,875.1,89,855.1,89z"/>
		<path fill="#FFCD9D" d="M855.1,208.6c-40,0-62.1-20.5-62.1-54v24c0,33.5,22.1,54,62.1,54c40.5,0,62.4-20.5,62.4-54v-24
			C917.4,188.1,895.6,208.6,855.1,208.6z"/>
		<path fill="#FFCD9D" d="M930.9,69v-0.5C930.9,68.7,930.9,68.9,930.9,69z"/>
	</g>
	<g>
		<path fill="#FFFFFF" d="M189.6,22v13.2c0,6.8-2.4,9.2-9.2,9.2h-46.4v150.9c0,6.8-2.4,9.2-9.2,9.2h-15.7c-6.8,0-9.2-2.4-9.2-9.2
			V44.4H53.5c-7,0-9.2-2.4-9.2-9.2V22c0-6.8,2.2-9.2,9.2-9.2h126.9C187.1,12.8,189.6,15.3,189.6,22z"/>
		<path fill="#FFFFFF" d="M252.5,60.6c6.2,0,8.4,1.9,8.4,8.4v11.9c0,6.2-2.2,8.4-8.4,8.4h-9.7c-10.5,0-18.6,1.1-25.7,3.2
			c-2.4,0.5-2.7,1.9-2.7,3.2v100.4c0,6.2-1.9,8.4-8.1,8.4h-14.9c-6.2,0-8.4-2.2-8.4-8.4V84.1c0-8.6,1.9-11.9,10.5-15.4
			c10-3.8,26.2-7.6,50.2-8.1H252.5z"/>
		<path fill="#FFFFFF" d="M397.2,72.8V184c0,8.4-1.9,11.6-10.5,15.1c-10.8,4.3-27.3,9.5-52.9,9.5c-38.6,0-56.4-20.2-56.4-54.3V72.8
			c0-6.2,2.2-8.1,8.4-8.1h14.9c6.2,0,8.1,1.9,8.1,8.1v80.5c0,18.1,9.7,26.7,29.4,26.7c10.5,0,17.6-1.1,24.8-3.2c2.4-0.8,3-2.4,3-4.6
			V72.8c0-6.2,2.2-8.1,8.4-8.1h14.6C395,64.7,397.2,66.6,397.2,72.8z"/>
		<path fill="#FFFFFF" d="M568.1,60.6c36.7,0,52.9,19.7,52.9,53.7v81.8c0,6.2-1.9,8.4-8.1,8.4h-14.9c-6.2,0-8.4-2.2-8.4-8.4v-80.7
			c0-17.3-8.6-26.2-26.2-26.2c-10.8,0-20,2.7-26.2,4.9c2.2,5.7,3,12.7,3,20.2v81.8c0,6.2-2.2,8.4-8.4,8.4h-14.6
			c-6.2,0-8.4-2.2-8.4-8.4v-80.7c0-17.3-9.2-26.2-26.5-26.2c-8.4,0-14.9,1.1-21.6,3.2c-1.9,0.8-2.2,1.9-2.2,3.2v100.4
			c0,6.2-1.9,8.4-8.1,8.4h-14.9c-6.2,0-8.4-2.2-8.4-8.4v-111c0-8.6,2.2-11.9,10.5-15.4c10.5-4.3,25.4-9.2,49.1-9.2
			c14.3,0,25.4,3,33.5,8.9C530,65.8,544.9,60.6,568.1,60.6z"/>
		<path fill="#FFFFFF" d="M682,13.1v52.1c8.1-1.9,19.2-4.6,32.4-4.6c38.6,0,56.2,20,56.2,54.3v36.5c0,37-19.7,57.2-61,57.2
			c-21.9,0-39.4-4.6-48.9-8.6c-8.6-4.1-10-6.2-10-14.9v-172c0-6.2,2.2-8.4,8.4-8.4h14.9C680.1,4.7,682,6.9,682,13.1z M709.8,89.3
			c-11.3,0-21.3,2.7-27.8,4.9v79.7c0,1.3,0.3,2.2,2.2,3c6.2,2.2,14.3,3.2,23.2,3.2c21.6,0,31.9-9.5,31.9-29.4v-34.8
			C739.3,98.7,729,89.3,709.8,89.3z"/>
		<path fill="#FFFFFF" d="M855.1,60.6c40.5,0,62.4,20.5,62.4,54v40c0,33.5-21.9,54-62.4,54c-40,0-62.1-20.5-62.1-54v-40
			C793,81.2,815.1,60.6,855.1,60.6z M855.1,89c-19.7,0-30.8,9.2-30.8,25.7v40c0,16.2,11.1,25.7,30.8,25.7c20,0,31.1-9.5,31.1-25.7
			v-40C886.1,98.2,875.1,89,855.1,89z"/>
		<path fill="#FFFFFF" d="M1118.6,74.4l-36.2,122.9c-1.6,5.9-5.1,7.6-11.3,7.6h-9.2c-6.5,0-9.7-1.6-11.6-7.6l-19.7-69.1
			c-3.5-13-4.6-26.7-4.9-27.8h-1.4c-0.3,1.1-1.6,14.9-5.1,27.8l-19.7,69.1c-1.6,5.9-5.1,7.6-11.3,7.6h-8.9c-6.2,0-9.7-1.6-11.3-7.6
			L932,74.4c-2.4-7.8-1.4-9.7,6.8-9.7h10.5c10,0,13.5,1.4,14.8,8.4l15.4,60.5c2.4,11.9,4,31.6,4.6,32.9h1.4
			c0.3-1.4,2.2-20.5,5.7-33.2l17.8-59.1c2.2-7.3,3.8-8.6,13.8-8.6h6.2c10,0,11.6,1.3,13.8,8.4l18.1,59.4c4,13.8,5.4,31.9,5.7,33.2
			h1.6c0.3-1.4,1.1-17.8,4.6-33.2l14.9-60.2c1.6-7,4.9-8.4,15.1-8.4h8.9C1119.7,64.7,1120.8,66.6,1118.6,74.4z"/>
		<path fill="#FFFFFF" d="M1258.7,72.8v136.4c0,35.4-17,58.9-59.4,58.9c-29.2,0-46.4-10-56.2-25.9c-3.8-5.9-3-10.3,3.5-13.5
			l10.3-5.7c6.5-3.2,9.5-2.4,13.5,3.2c5.7,8.9,13.8,13.8,28.4,13.8c18.9,0,28.6-10,28.6-29.2v-12.7c-8.4,1.9-18.9,3.8-32.1,3.8
			c-38.6,0-56.4-20.2-56.4-54.3V72.8c0-6.2,2.2-8.1,8.4-8.1h14.8c6.2,0,8.1,1.9,8.1,8.1v73.7c0,18.1,9.7,26.7,29.4,26.7
			c11.3,0,20.5-1.9,27.8-3.8V72.8c0-6.2,2.2-8.1,8.4-8.1h14.6C1256.6,64.7,1258.7,66.6,1258.7,72.8z"/>
		<path fill="#FFFFFF" d="M1346.5,60.6c21.9,0,39.4,4,48.9,8.4c8.6,4,10,6.2,10,14.8v125.3c0,35.4-17,58.9-59.4,58.9
			c-29.2,0-46.4-10-55.9-25.9c-4-5.9-3-10.3,3.2-13.5l10.3-5.7c6.5-3.2,9.5-2.4,13.8,3.2c5.7,8.9,13.5,13.8,28.1,13.8
			c18.9,0,28.6-10,28.6-29.2v-13.5c-8.1,2.2-19.4,4.9-32.4,4.9c-38.6,0-56.2-20.3-56.2-54.3v-30.5
			C1285.5,80.6,1305.2,60.6,1346.5,60.6z M1348.7,89.3c-21.6,0-31.9,9.2-31.9,29.2V147c0,17,10.3,26.5,29.4,26.5
			c11.6,0,21.1-2.2,27.8-3.8V95.5c0-1.9-0.5-2.4-2.4-3.2C1365.7,90.6,1357.6,89.3,1348.7,89.3z"/>
	</g>
</g>
</svg>
